<?xml version="1.0" encoding="UTF-8" standalone="no"?>
<!-- Created with Inkscape (http://www.inkscape.org/) -->

<svg
   xmlns:dc="http://purl.org/dc/elements/1.1/"
   xmlns:cc="http://creativecommons.org/ns#"
   xmlns:rdf="http://www.w3.org/1999/02/22-rdf-syntax-ns#"
   xmlns:svg="http://www.w3.org/2000/svg"
   xmlns="http://www.w3.org/2000/svg"
   xmlns:sodipodi="http://sodipodi.sourceforge.net/DTD/sodipodi-0.dtd"
   xmlns:inkscape="http://www.inkscape.org/namespaces/inkscape"
   width="70.746994mm"
   height="61.173382mm"
   viewBox="0 0 70.746994 61.173382"
   version="1.1"
   id="svg8"
   sodipodi:docname="logo.svg"
   inkscape:version="0.92.4 (5da689c313, 2019-01-14)">
  <defs
     id="defs2" />
  <sodipodi:namedview
     id="base"
     pagecolor="#ffffff"
     bordercolor="#666666"
     borderopacity="1.0"
     inkscape:pageopacity="0.0"
     inkscape:pageshadow="2"
     inkscape:zoom="0.77382812"
     inkscape:cx="396.21291"
     inkscape:cy="103.91585"
     inkscape:document-units="mm"
     inkscape:current-layer="layer1"
     showgrid="false"
     inkscape:window-width="1366"
     inkscape:window-height="715"
     inkscape:window-x="-8"
     inkscape:window-y="-8"
     inkscape:window-maximized="1" />
  <metadata
     id="metadata5">
    <rdf:RDF>
      <cc:Work
         rdf:about="">
        <dc:format>image/svg+xml</dc:format>
        <dc:type
           rdf:resource="http://purl.org/dc/dcmitype/StillImage" />
        <dc:title />
      </cc:Work>
    </rdf:RDF>
  </metadata>
  <g
     inkscape:label="Capa 1"
     inkscape:groupmode="layer"
     id="layer1"
     transform="translate(-1.002,-1.0689836)">
    <a
       id="a3761"
       transform="matrix(1.0048564,0,0,1,-0.3480343,0)">
      <g
         id="g3759">
        <g
           id="g3729"
           transform="matrix(0.53219586,0,0,0.46241295,-1.6667404,-0.6986811)">
          <path
             style="fill:#fdfdfd;stroke-width:0.26458335"
             d="M 5.6562824,69.968532 V 3.8226972 H 71.802117 137.94795 V 69.968532 136.11437 H 71.802117 5.6562824 Z"
             id="path3745"
             inkscape:connector-curvature="0" />
          <path
             style="fill:#cecece;stroke-width:0.26458335"
             d="m 27.733946,97.409108 c -0.07704,-0.200758 -0.105169,-1.367094 -0.06251,-2.591858 l 0.07756,-2.226842 h 1.852084 c 1.675694,0 1.852083,0.0504 1.852083,0.529166 0,0.433399 -0.203508,0.543891 -1.124479,0.610527 -1.390027,0.10057 -1.477835,0.518911 -0.132292,0.630271 0.788426,0.06526 0.992188,0.190791 0.992188,0.611286 0,0.412604 -0.220486,0.558308 -1.00095,0.661458 -1.394835,0.184351 -1.35229,0.635172 0.07491,0.79375 0.970139,0.107794 1.190625,0.230286 1.190625,0.661459 0,0.469288 -0.202495,0.538027 -1.789571,0.607483 -1.332771,0.05833 -1.825324,-0.01484 -1.929641,-0.2867 z m 6.28652,0.01222 c -0.398354,-0.191828 -0.580642,-0.481875 -0.529167,-0.841989 0.08133,-0.568992 0.556773,-0.645054 1.732172,-0.277117 0.904301,0.283075 0.719497,-0.288893 -0.218932,-0.677606 -0.447837,-0.185499 -1.001777,-0.623477 -1.23098,-0.973285 -0.386154,-0.589346 -0.377857,-0.68829 0.113094,-1.348473 0.933648,-1.255485 3.925715,-0.961708 3.427534,0.336534 -0.142221,0.370626 -0.363958,0.429186 -1.101323,0.290857 -1.175202,-0.22047 -1.200883,0.173243 -0.03871,0.593492 1.049745,0.379589 1.63426,1.416312 1.227283,2.176756 -0.541578,1.011949 -2.090597,1.342205 -3.380971,0.720831 z m 6.699051,0.01728 c -0.06861,-0.192656 -0.157548,-1.059778 -0.197635,-1.926934 -0.06645,-1.437378 -0.131321,-1.59035 -0.734349,-1.731722 -0.427103,-0.100129 -0.661458,-0.338328 -0.661458,-0.672306 0,-0.459669 0.218268,-0.525989 1.961063,-0.595842 1.35601,-0.05435 2.024091,0.02339 2.165352,0.251952 0.268036,0.43369 0.06381,0.731883 -0.700188,1.022353 -0.55799,0.212148 -0.63165,0.425334 -0.701902,2.031466 -0.06397,1.462548 -0.16428,1.8108 -0.542312,1.882881 -0.255103,0.04864 -0.519959,-0.06919 -0.588571,-0.261848 z m 4.472258,-0.04167 c -0.07447,-0.194064 -0.100497,-1.354923 -0.05784,-2.579687 l 0.07756,-2.226842 h 1.852083 c 1.675694,0 1.852083,0.0504 1.852083,0.529166 0,0.433399 -0.203509,0.543891 -1.124479,0.610527 -1.390025,0.10057 -1.477835,0.518911 -0.132291,0.630271 0.788426,0.06526 0.992187,0.190791 0.992187,0.611286 0,0.420494 -0.203761,0.546031 -0.992187,0.611285 -1.423562,0.117819 -1.324266,0.789469 0.132291,0.894855 0.934779,0.06764 1.138743,0.18179 1.209027,0.676672 0.08087,0.569408 0.0028,0.595313 -1.79424,0.595313 -1.321763,0 -1.918933,-0.104611 -2.014191,-0.352846 z m 6.085417,0 c -0.07447,-0.194064 -0.100497,-1.354923 -0.05784,-2.579687 l 0.07756,-2.226842 1.551096,-0.08024 c 1.915437,-0.09908 2.568723,0.359754 2.531139,1.777754 -0.01384,0.521573 0.05594,1.264087 0.155022,1.650027 0.30109,1.172747 -0.58982,1.811832 -2.525768,1.811832 -1.085917,0 -1.639068,-0.112742 -1.731206,-0.352846 z m 2.733021,-1.3008 c -0.167576,-0.508841 -1.258096,-0.582128 -1.258096,-0.08455 0,0.270145 0.238874,0.415277 0.683506,0.415277 0.428509,0 0.642874,-0.123388 0.57459,-0.330729 z M 53.81045,94.045616 c 0,-0.145521 -0.238125,-0.264583 -0.529166,-0.264583 -0.291042,0 -0.529167,0.119062 -0.529167,0.264583 0,0.145521 0.238125,0.264583 0.529167,0.264583 0.291041,0 0.529166,-0.119062 0.529166,-0.264583 z m 3.531656,3.297894 c -0.148942,-0.388144 0.877451,-3.034517 1.663904,-4.290081 0.722408,-1.153317 1.35536,-0.764329 2.366425,1.454306 0.513723,1.127289 0.957202,2.283269 0.985507,2.568842 0.07305,0.737021 -0.831117,0.852993 -1.310815,0.168132 -0.52574,-0.750602 -2.077275,-0.765709 -2.474177,-0.02409 -0.335989,0.627801 -1.011221,0.695219 -1.230844,0.122894 z m 2.818344,-2.239561 c 0,-0.14552 -0.119062,-0.264583 -0.264583,-0.264583 -0.145521,0 -0.264583,0.119063 -0.264583,0.264583 0,0.145521 0.119062,0.264584 0.264583,0.264584 0.145521,0 0.264583,-0.119063 0.264583,-0.264584 z m 4.353412,2.312544 c -0.07859,-0.204822 -0.108,-1.374479 -0.06534,-2.599243 0.07011,-2.013114 0.129601,-2.23429 0.619797,-2.304434 0.389361,-0.05572 0.799643,0.279966 1.455209,1.190625 0.849492,1.180039 0.918117,1.222227 0.987038,0.606758 0.162473,-1.450885 0.341988,-1.852083 0.828705,-1.852083 0.2727,0 0.568089,0.188331 0.656418,0.418515 0.208407,0.543097 0.208407,3.91154 0,4.454637 -0.28933,0.75398 -1.108938,0.440483 -2.136791,-0.817312 l -1.009902,-1.235823 -0.132291,1.167312 c -0.09484,0.836819 -0.26361,1.192247 -0.596112,1.255379 -0.255103,0.04844 -0.528129,-0.07951 -0.606727,-0.284331 z m 11.023344,-0.09816 c -0.338791,-0.237299 -0.783601,-0.832612 -0.988462,-1.322916 -0.703421,-1.683525 0.630343,-3.537297 2.54504,-3.537297 1.135647,0 2.158558,0.641302 1.938327,1.215216 -0.120981,0.315272 -0.390504,0.367392 -1.19607,0.231293 -1.692992,-0.28603 -2.713784,1.059492 -1.581319,2.084358 0.743794,0.673124 1.361149,0.53716 1.677167,-0.369376 0.395168,-1.133581 1.121212,-0.943444 1.226889,0.321299 0.06338,0.758558 -0.0482,1.055076 -0.521893,1.386861 -0.778254,0.545111 -2.314628,0.540433 -3.099679,-0.0094 z m 5.617401,0.02519 c -0.148942,-0.388144 0.877451,-3.034517 1.663903,-4.290081 0.722408,-1.153317 1.35536,-0.764329 2.366426,1.454306 0.513723,1.127289 0.957202,2.283269 0.985507,2.568842 0.07305,0.737021 -0.831117,0.852993 -1.310815,0.168132 -0.52574,-0.75061 -2.077276,-0.765717 -2.474177,-0.0241 -0.335989,0.627801 -1.011222,0.695219 -1.230844,0.122894 z m 2.818344,-2.239569 c 0,-0.14552 -0.119062,-0.264583 -0.264583,-0.264583 -0.145521,0 -0.264584,0.119063 -0.264584,0.264583 0,0.145521 0.119063,0.264584 0.264584,0.264584 0.145521,0 0.264583,-0.119063 0.264583,-0.264584 z m 4.293973,2.336057 c -0.431448,-0.431448 -0.437745,-4.234368 -0.0077,-4.66439 0.543023,-0.543023 3.041394,-0.39819 3.65125,0.211667 0.588812,0.588811 0.715767,2.088816 0.218845,2.585738 -0.237376,0.237377 -0.236585,0.472163 0.0034,0.998787 0.172527,0.378653 0.245613,0.798602 0.162417,0.933219 -0.287737,0.465564 -1.119211,0.242163 -1.550916,-0.416702 -0.538175,-0.821357 -1.150575,-0.854748 -1.2627,-0.06885 -0.09682,0.678603 -0.735364,0.899699 -1.214533,0.420531 z M 90.8425,94.718663 c 0.427273,-0.514831 0.126304,-0.93763 -0.667456,-0.93763 -0.449882,0 -0.645843,0.147177 -0.645843,0.485068 0,0.886003 0.741511,1.141527 1.313299,0.452562 z m 3.833863,2.69783 c -0.07859,-0.204822 -0.108,-1.374479 -0.06534,-2.599243 l 0.07756,-2.226842 1.470806,-0.07784 c 1.188299,-0.06289 1.61226,0.03343 2.207271,0.501463 0.644985,0.507346 0.714255,0.697777 0.557664,1.533051 -0.09834,0.524558 -0.174423,1.459759 -0.169071,2.078223 0.0081,0.937934 -0.075,1.124479 -0.501015,1.124479 -0.280911,0 -0.705779,-0.297656 -0.944152,-0.661458 -0.536901,-0.819415 -0.961621,-0.841497 -1.301991,-0.06769 -0.304464,0.692173 -1.124479,0.935923 -1.331725,0.395859 z m 2.731127,-2.623749 c 0.40036,-0.40036 -0.06308,-1.011711 -0.766934,-1.011711 -0.353499,0 -0.496771,0.190767 -0.496771,0.661458 0,0.720659 0.699439,0.914519 1.263705,0.350253 z m 3.88346,2.623749 c -0.0786,-0.204822 -0.108,-1.374479 -0.0653,-2.599243 0.0705,-2.0246 0.12562,-2.226842 0.60673,-2.226842 0.49198,0 0.52916,0.17639 0.52916,2.509917 0,2.18169 -0.0607,2.521601 -0.46382,2.599243 -0.2551,0.04913 -0.52813,-0.07826 -0.60672,-0.283075 z m 4.40876,-0.09816 c -0.33879,-0.237299 -0.7836,-0.832612 -0.98847,-1.322916 -0.70342,-1.683525 0.63035,-3.537297 2.54504,-3.537297 1.13565,0 2.15856,0.641302 1.93833,1.215216 -0.12098,0.315272 -0.3905,0.367392 -1.19607,0.231293 -1.69299,-0.28603 -2.71378,1.059492 -1.58132,2.084358 0.7438,0.673124 1.36115,0.53716 1.67717,-0.369376 0.39517,-1.133581 1.12121,-0.943444 1.22689,0.321299 0.0634,0.758558 -0.0482,1.055076 -0.52189,1.386861 -0.77826,0.545111 -2.31463,0.540433 -3.09968,-0.0094 z m 5.52962,-0.163859 c 0.002,-0.327421 0.44885,-1.488281 0.99219,-2.579687 0.73614,-1.47869 1.12274,-1.984375 1.51706,-1.984375 0.39431,0 0.78091,0.505685 1.51705,1.984375 1.12735,2.264508 1.26403,3.175 0.47663,3.175 -0.28592,0 -0.6473,-0.238125 -0.80306,-0.529167 -0.19869,-0.371255 -0.55399,-0.529166 -1.19062,-0.529166 -0.63664,0 -0.99194,0.157911 -1.19063,0.529166 -0.39938,0.74626 -1.32415,0.699871 -1.31862,-0.06615 z M 72.096067,84.68829 C 71.880775,84.428882 71.81559,81.309442 71.865231,73.641936 l 0.06918,-10.684862 h 10.847917 10.847917 l 0.06915,10.830441 c 0.0542,8.488744 -0.003,10.876251 -0.264583,11.042304 -0.183555,0.116522 -4.992362,0.213685 -10.686238,0.215913 -8.432814,0.0033 -10.408129,-0.06298 -10.652509,-0.357442 z m 12.670634,-7.578431 c 1.126215,-0.321136 1.762017,-0.705004 1.53828,-0.928741 -0.0914,-0.0914 -0.55417,0.03445 -1.02837,0.279665 -2.357498,1.219107 -5.801577,-0.893641 -5.801577,-3.558942 0,-2.860554 3.388151,-4.912083 5.926344,-3.588404 0.421833,0.219985 0.830615,0.33633 0.908402,0.258543 0.261877,-0.261874 -0.34454,-0.628727 -1.586307,-0.959639 -1.644099,-0.438126 -3.177,0.01625 -4.49235,1.331598 -2.183585,2.183585 -1.453089,5.60241 1.481924,6.9356 1.228698,0.55812 1.762792,0.598403 3.053654,0.23032 z M 49.49185,78.790905 c -0.09862,-0.09862 -0.179317,-4.977315 -0.179317,-10.841535 0,-10.270636 0.01879,-10.672279 0.511773,-10.936113 0.79215,-0.423945 20.421577,-0.37083 21.004722,0.05684 0.414072,0.303673 0.445267,1.207395 0.381298,11.046355 l -0.06967,10.715625 -10.734747,0.06907 C 54.501804,78.93914 49.590476,78.889534 49.49185,78.790905 Z m 13.564793,-7.624392 c 0.753224,-0.389507 0.807974,-0.517025 0.807974,-1.881849 0,-0.908643 -0.100369,-1.401996 -0.264583,-1.300507 -0.145521,0.08994 -0.264583,0.698352 -0.264583,1.352032 0,1.106114 -0.06361,1.215091 -0.917544,1.571887 -2.736956,1.143571 -5.961623,-0.785183 -5.961623,-3.565795 0,-2.82851 3.650877,-4.983166 6.085417,-3.591457 0.948875,0.542425 1.296037,0.467161 0.583908,-0.126593 -0.918643,-0.765939 -2.757686,-0.950576 -4.154556,-0.417105 -3.873773,1.479407 -4.040124,6.367177 -0.276757,8.13185 1.229657,0.576596 3.053244,0.5045 4.362347,-0.172463 z m 9.073195,-8.826278 c -0.26158,-0.166053 -0.318786,-2.55356 -0.264583,-11.042304 L 71.934405,40.46749 82.65003,40.39782 c 9.83896,-0.06397 10.742682,-0.03277 11.046355,0.381299 0.251129,0.342429 0.330729,2.917728 0.330729,10.700248 0,8.96475 -0.05211,10.301391 -0.415774,10.665055 -0.363969,0.363972 -1.707341,0.415269 -10.781771,0.411724 -5.701298,-0.0021 -10.51618,-0.09939 -10.699735,-0.215913 z m 12.15281,-5.910229 c 0.591111,-0.177101 1.417929,-0.73593 1.933975,-1.307131 1.569294,-1.737019 1.565603,-4.029919 -0.0093,-5.77314 -1.118306,-1.237832 -2.49437,-1.66465 -5.012505,-1.554747 l -1.852083,0.08084 -0.07334,4.089932 c -0.04033,2.249464 -0.01431,4.243761 0.05784,4.431771 0.169338,0.441288 3.517664,0.463235 4.955397,0.03248 z m -4.42709,-0.563885 c -0.07262,-0.189243 -0.09865,-1.945415 -0.05784,-3.902604 l 0.07419,-3.558527 1.927397,-0.07792 c 1.5806,-0.0639 2.110563,0.02503 2.945374,0.494212 1.196107,0.672251 2.140471,2.201487 2.134335,3.456191 -0.006,1.226868 -1.002405,2.853762 -2.108186,3.442164 -1.128485,0.600485 -4.70021,0.706929 -4.915271,0.146486 z m -30.366635,0.432271 c -0.09701,-0.09701 -0.17639,-5.025369 -0.17639,-10.951901 0,-9.581782 0.04636,-10.793304 0.418516,-10.93611 0.699971,-0.268605 20.843828,-0.175625 21.277318,0.09821 0.339569,0.214506 0.40771,1.742224 0.471919,10.580051 0.05059,6.962844 -0.01712,10.501558 -0.207748,10.857743 -0.275468,0.514721 -0.558755,0.528397 -10.945008,0.528397 -5.86422,0 -10.741595,-0.07937 -10.838607,-0.17639 z m 13.846528,-5.899446 c 0,-0.141 -1.153285,-0.288857 -2.579688,-0.33073 l -2.579688,-0.07573 v -1.719792 -1.719791 l 2.182813,-0.07685 c 1.200547,-0.04227 2.182813,-0.18628 2.182813,-0.320029 0,-0.13375 -0.982266,-0.277763 -2.182813,-0.32003 l -2.182813,-0.07684 V 44.039362 42.31957 l 2.579688,-0.07573 c 3.573156,-0.104892 3.301651,-0.585732 -0.330729,-0.585732 h -2.910417 v 4.497917 4.497916 h 2.910417 c 1.690986,0 2.910417,-0.106844 2.910417,-0.255002 z"
             id="path3743"
             inkscape:connector-curvature="0" />
          <path
             style="fill:#c0c0c0;stroke-width:0.26458335"
             d="m 27.733946,97.409108 c -0.07704,-0.200758 -0.105169,-1.367094 -0.06251,-2.591858 l 0.07756,-2.226842 h 1.852084 c 1.675694,0 1.852083,0.0504 1.852083,0.529166 0,0.433399 -0.203508,0.543891 -1.124479,0.610527 -1.390027,0.10057 -1.477835,0.518911 -0.132292,0.630271 0.788426,0.06526 0.992188,0.190791 0.992188,0.611286 0,0.412604 -0.220486,0.558308 -1.00095,0.661458 -1.394835,0.184351 -1.35229,0.635172 0.07491,0.79375 0.970139,0.107794 1.190625,0.230286 1.190625,0.661459 0,0.469288 -0.202495,0.538027 -1.789571,0.607483 -1.332771,0.05833 -1.825324,-0.01484 -1.929641,-0.2867 z m 6.217945,-0.14728 c -0.685435,-0.55503 -0.549852,-1.535893 0.173911,-1.25816 1.635051,0.627427 2.454852,0.273807 0.878737,-0.379042 -1.118685,-0.463373 -1.694384,-1.375786 -1.315162,-2.084369 0.159197,-0.297466 0.517019,-0.662639 0.79516,-0.811493 1.227513,-0.656948 3.188962,-0.02572 2.82965,0.910637 -0.142221,0.370626 -0.363958,0.429186 -1.101323,0.290857 -1.126085,-0.211257 -1.233593,0.21999 -0.14909,0.598048 1.069798,0.372936 1.736966,1.426094 1.355249,2.139336 -0.610497,1.14073 -2.4111,1.449308 -3.467132,0.594186 z m 6.814929,0.320712 c -0.102045,-0.102045 -0.185537,-0.933101 -0.185537,-1.846792 0,-1.55135 -0.04814,-1.68433 -0.727604,-2.009989 -0.400182,-0.191802 -0.727604,-0.525722 -0.727604,-0.74204 0,-0.528423 3.812394,-0.728059 4.128741,-0.216204 0.266329,0.430932 -0.21781,1.013518 -0.842256,1.013518 -0.418677,0 -0.495832,0.262538 -0.562914,1.915424 -0.05997,1.477608 -0.171403,1.933274 -0.487514,1.993519 -0.225377,0.04296 -0.493268,-0.0054 -0.595312,-0.107436 z m 4.47298,-0.251272 c -0.238118,-0.62052 -0.186894,-4.157465 0.06598,-4.556139 0.15172,-0.239199 0.736614,-0.320045 1.914179,-0.264583 1.492689,0.0703 1.695698,0.143214 1.695698,0.609028 0,0.433399 -0.203509,0.543891 -1.124479,0.610527 -1.390025,0.10057 -1.477835,0.518911 -0.132291,0.630271 0.788426,0.06526 0.992187,0.190791 0.992187,0.611286 0,0.420494 -0.203761,0.546031 -0.992187,0.611285 -1.423562,0.117819 -1.324266,0.789469 0.132291,0.894855 0.934779,0.06764 1.138743,0.18179 1.209027,0.676672 0.08074,0.568455 0.0013,0.595313 -1.75763,0.595313 -1.435751,0 -1.87761,-0.09233 -2.002775,-0.418515 z m 6.085416,0 c -0.08833,-0.230183 -0.160599,-1.232477 -0.160599,-2.227319 0,-2.576478 0.04821,-2.645833 1.839383,-2.645833 1.796071,0 2.414061,0.488342 2.374535,1.876378 -0.01413,0.495961 0.05565,1.217517 0.155054,1.603457 0.299704,1.163629 -0.590614,1.811832 -2.488581,1.811832 -1.177705,0 -1.598486,-0.102399 -1.719792,-0.418515 z m 2.684997,-1.235131 c -0.167576,-0.508841 -1.258096,-0.582128 -1.258096,-0.08455 0,0.270145 0.238874,0.415277 0.683506,0.415277 0.428509,0 0.642874,-0.123388 0.57459,-0.330729 z M 53.81045,94.045616 c 0,-0.145521 -0.238125,-0.264583 -0.529166,-0.264583 -0.291042,0 -0.529167,0.119062 -0.529167,0.264583 0,0.145521 0.238125,0.264583 0.529167,0.264583 0.291041,0 0.529166,-0.119062 0.529166,-0.264583 z m 3.547163,3.338301 c -0.142335,-0.370919 0.944957,-3.239775 1.64125,-4.330488 0.726004,-1.137259 1.362692,-0.763924 2.334692,1.368988 0.492339,1.080365 0.973791,2.212047 1.069895,2.514846 0.258213,0.813552 -0.541977,1.01141 -1.281326,0.316826 -0.782606,-0.735217 -2.163903,-0.753356 -2.549174,-0.03347 -0.325853,0.608865 -1.009128,0.700672 -1.215337,0.163301 z m 2.802837,-2.279968 c 0,-0.14552 -0.119062,-0.264583 -0.264583,-0.264583 -0.145521,0 -0.264583,0.119063 -0.264583,0.264583 0,0.145521 0.119062,0.264584 0.264583,0.264584 0.145521,0 0.264583,-0.119063 0.264583,-0.264584 z m 4.41887,2.478591 c -0.290758,-0.290756 -0.21709,-4.809109 0.08142,-4.993595 0.493647,-0.305091 1.183032,0.133897 1.981833,1.261996 l 0.793572,1.120717 0.149604,-1.119566 c 0.179189,-1.34099 0.389239,-1.601126 0.987917,-1.223489 0.685141,0.432173 0.658577,4.53997 -0.03207,4.960051 -0.410885,0.249918 -0.653341,0.09785 -1.635384,-1.025713 l -1.152983,-1.319135 -0.08441,1.18456 c -0.08062,1.131491 -0.581533,1.662137 -1.089494,1.154174 z M 75.537206,97.318329 C 75.198415,97.08103 74.753605,96.485717 74.548744,95.995413 74.233032,95.23981 74.231045,94.972901 74.5357,94.244054 c 0.479234,-1.146482 1.003789,-1.540674 2.277533,-1.711519 1.250702,-0.167756 2.480157,0.459899 2.221447,1.134081 -0.123849,0.322747 -0.387371,0.375074 -1.198647,0.238009 -1.692992,-0.28603 -2.713784,1.059492 -1.581319,2.084358 0.705233,0.638228 1.291563,0.537597 1.688086,-0.289721 0.506741,-1.05728 1.117899,-0.936935 1.21597,0.239443 0.06343,0.760817 -0.04787,1.057044 -0.521893,1.389062 -0.778254,0.545111 -2.314628,0.540433 -3.099679,-0.0094 z m 5.632908,0.06559 c -0.142335,-0.370919 0.944957,-3.239775 1.64125,-4.330488 0.726003,-1.137259 1.362692,-0.763924 2.334691,1.368988 0.49234,1.080365 0.973791,2.212047 1.069896,2.514846 0.258212,0.813552 -0.541978,1.01141 -1.281327,0.316826 -0.782606,-0.735217 -2.163903,-0.753356 -2.549173,-0.03347 -0.325853,0.608865 -1.009129,0.700672 -1.215337,0.163301 z m 2.802837,-2.279968 c 0,-0.14552 -0.119062,-0.264583 -0.264583,-0.264583 -0.145521,0 -0.264584,0.119063 -0.264584,0.264583 0,0.145521 0.119063,0.264584 0.264584,0.264584 0.145521,0 0.264583,-0.119063 0.264583,-0.264584 z m 4.28625,2.328334 c -0.424198,-0.424199 -0.424198,-4.232468 0,-4.656667 0.543399,-0.543399 2.93827,-0.395787 3.60136,0.221975 0.648838,0.604483 0.764101,1.817235 0.250828,2.639116 -0.262128,0.419735 -0.260323,0.634309 0.009,1.065506 0.700876,1.12228 -0.646202,1.500222 -1.376195,0.386112 -0.238374,-0.363803 -0.596347,-0.661459 -0.795497,-0.661459 -0.199152,0 -0.4368,0.297656 -0.528108,0.661459 -0.178909,0.712824 -0.652285,0.853024 -1.161352,0.343958 z m 2.583299,-2.71362 c 0.427273,-0.514831 0.126304,-0.93763 -0.667456,-0.93763 -0.512511,0 -0.645843,0.136557 -0.645843,0.661458 0,0.756682 0.778624,0.920417 1.313299,0.276172 z m 3.879369,2.625593 c -0.212228,-0.553053 -0.215982,-3.917778 -0.005,-4.467625 0.25705,-0.669866 2.752571,-0.568335 3.664635,0.149096 0.629444,0.495117 0.698765,0.689414 0.542798,1.521354 -0.09834,0.524558 -0.174424,1.459759 -0.169071,2.078223 0.0081,0.937934 -0.075,1.124479 -0.501015,1.124479 -0.280911,0 -0.705779,-0.297656 -0.944153,-0.661458 -0.5369,-0.819415 -0.96162,-0.841497 -1.301991,-0.06769 -0.319095,0.725434 -1.06045,0.911965 -1.286219,0.323622 z m 2.671241,-2.537132 c 0.447175,-0.447175 0.09953,-1.026091 -0.616175,-1.026091 -0.498972,0 -0.63315,0.140179 -0.63315,0.661458 0,0.712761 0.697595,0.916363 1.249325,0.364633 z m 3.89784,2.609369 c -0.0786,-0.204822 -0.108,-1.374479 -0.0653,-2.599243 0.0705,-2.0246 0.12562,-2.226842 0.60673,-2.226842 0.49198,0 0.52916,0.17639 0.52916,2.509917 0,2.18169 -0.0607,2.521601 -0.46382,2.599243 -0.2551,0.04913 -0.52813,-0.07826 -0.60672,-0.283075 z m 4.40876,-0.09816 c -0.33879,-0.237299 -0.7836,-0.832612 -0.98847,-1.322916 -0.31571,-0.755603 -0.31769,-1.022512 -0.013,-1.751359 0.47924,-1.146482 1.00379,-1.540674 2.27753,-1.711519 1.25071,-0.167756 2.48016,0.459899 2.22145,1.134081 -0.12385,0.322747 -0.38737,0.375074 -1.19865,0.238009 -1.69299,-0.28603 -2.71378,1.059492 -1.58132,2.084358 0.70524,0.638228 1.29157,0.537597 1.68809,-0.289721 0.50674,-1.05728 1.1179,-0.936935 1.21597,0.239443 0.0634,0.760817 -0.0479,1.057044 -0.52189,1.389062 -0.77826,0.545111 -2.31463,0.540433 -3.09968,-0.0094 z m 5.52962,-0.163859 c 0.002,-0.327421 0.44885,-1.488281 0.99219,-2.579687 0.73614,-1.47869 1.12274,-1.984375 1.51706,-1.984375 0.39431,0 0.78091,0.505685 1.51705,1.984375 1.12735,2.264508 1.26403,3.175 0.47663,3.175 -0.28592,0 -0.6473,-0.238125 -0.80306,-0.529167 -0.19869,-0.371255 -0.55399,-0.529166 -1.19062,-0.529166 -0.63664,0 -0.99194,0.157911 -1.19063,0.529166 -0.39938,0.74626 -1.32415,0.699871 -1.31862,-0.06615 z M 72.096067,84.68829 C 71.880775,84.428882 71.81559,81.309442 71.865231,73.641936 l 0.06918,-10.684862 h 10.847917 10.847917 l 0.06915,10.830441 c 0.0542,8.488744 -0.003,10.876251 -0.264583,11.042304 -0.183555,0.116522 -4.992362,0.213685 -10.686238,0.215913 -8.432814,0.0033 -10.408129,-0.06298 -10.652509,-0.357442 z m 12.670634,-7.578431 c 1.126215,-0.321136 1.762017,-0.705004 1.53828,-0.928741 -0.0914,-0.0914 -0.55417,0.03445 -1.02837,0.279665 -2.357498,1.219107 -5.801577,-0.893641 -5.801577,-3.558942 0,-2.860554 3.388151,-4.912083 5.926344,-3.588404 0.421833,0.219985 0.830615,0.33633 0.908402,0.258543 0.261877,-0.261874 -0.34454,-0.628727 -1.586307,-0.959639 -1.644099,-0.438126 -3.177,0.01625 -4.49235,1.331598 -2.183585,2.183585 -1.453089,5.60241 1.481924,6.9356 1.228698,0.55812 1.762792,0.598403 3.053654,0.23032 z m -35.067598,1.261605 c -0.07058,-0.183923 -0.09713,-4.977559 -0.05901,-10.652523 l 0.06931,-10.318117 H 60.292736 70.87607 v 10.583333 10.583334 l -10.524324,0.06919 c -8.28806,0.05449 -10.551591,-0.0019 -10.652649,-0.265215 z m 13.610709,-7.01924 c 0.562901,-0.41882 0.701768,-0.763717 0.768271,-1.908109 0.04464,-0.768284 0.01347,-1.573311 -0.06928,-1.788946 -0.285613,-0.744299 -0.90691,0.180665 -0.990447,1.474547 -0.07676,1.188939 -0.12138,1.250071 -1.179256,1.615792 -0.917705,0.317264 -1.286851,0.323963 -2.232885,0.04052 -2.894542,-0.867225 -3.745889,-3.90807 -1.674169,-5.97979 1.18492,-1.18492 2.418688,-1.41248 4.261665,-0.786034 0.774398,0.263226 1.481859,0.40473 1.572138,0.314454 0.338296,-0.338299 -0.189521,-1.017619 -1.07964,-1.389533 -2.092638,-0.874361 -4.76658,-0.169175 -6.128351,1.616197 -0.664358,0.871018 -0.763035,1.228124 -0.763035,2.761374 0,1.53325 0.09868,1.890355 0.763035,2.761374 1.094526,1.434997 2.557764,2.052762 4.502994,1.901127 0.971754,-0.07575 1.821463,-0.314905 2.248958,-0.632976 z M 72.18752,61.69967 C 72.11758,61.51742 72.09156,56.725154 72.12968,51.050191 L 72.19899,40.732073 H 82.782326 93.36566 l 0.06915,10.64948 0.06915,10.649479 H 82.90932 c -8.242429,0 -10.62287,-0.07357 -10.721795,-0.331362 z m 12.742188,-5.201901 c 0.598977,-0.272005 1.432415,-0.944732 1.852084,-1.494946 0.664358,-0.871019 0.763034,-1.228125 0.763034,-2.761375 0,-1.534321 -0.09847,-1.890085 -0.765051,-2.764017 -1.161031,-1.52219 -2.58187,-2.035064 -5.381961,-1.942703 l -2.319655,0.07651 -0.07297,4.355468 c -0.04013,2.395508 -0.0141,4.508868 0.05784,4.696354 0.216358,0.563819 4.528667,0.442323 5.866675,-0.165293 z M 80.119631,55.60021 c -0.0729,-0.189974 -0.09893,-1.827083 -0.05784,-3.638021 l 0.0747,-3.292616 1.984375,0.01299 c 2.967574,0.01942 4.33334,1.161968 4.334502,3.626075 0.0011,2.323672 -1.637514,3.635849 -4.541242,3.636569 -1.123461,2.64e-4 -1.704896,-0.111506 -1.794497,-0.344996 z m -30.630708,0.698182 c -0.09701,-0.09701 -0.17639,-5.025369 -0.17639,-10.951901 0,-9.581782 0.04636,-10.793304 0.418516,-10.93611 0.699971,-0.268605 20.843828,-0.175625 21.277318,0.09821 0.339569,0.214506 0.40771,1.742224 0.471919,10.580051 0.05059,6.962844 -0.01712,10.501558 -0.207748,10.857743 -0.275468,0.514721 -0.558755,0.528397 -10.945008,0.528397 -5.86422,0 -10.741595,-0.07937 -10.838607,-0.17639 z m 13.846528,-5.899446 c 0,-0.141 -1.153285,-0.288857 -2.579688,-0.33073 l -2.579688,-0.07573 v -1.719792 -1.719791 l 2.182813,-0.07685 c 1.200547,-0.04227 2.182813,-0.18628 2.182813,-0.320029 0,-0.13375 -0.982266,-0.277763 -2.182813,-0.32003 l -2.182813,-0.07684 V 44.039362 42.31957 l 2.579688,-0.07573 c 3.573156,-0.104892 3.301651,-0.585732 -0.330729,-0.585732 h -2.910417 v 4.497917 4.497916 h 2.910417 c 1.690986,0 2.910417,-0.106844 2.910417,-0.255002 z"
             id="path3741"
             inkscape:connector-curvature="0" />
          <path
             style="fill:#a9a9a9;stroke-width:0.26458335"
             d="m 27.890592,97.23801 c -0.388347,-0.725633 -0.342615,-3.791022 0.06487,-4.348292 0.471798,-0.645221 3.185413,-0.524246 3.313097,0.147701 0.06731,0.354248 -0.151795,0.464058 -1.055856,0.529166 -1.508298,0.108622 -1.608958,0.837333 -0.132469,0.958985 0.778724,0.06416 0.989089,0.184658 0.923841,0.529167 -0.05801,0.3063 -0.399768,0.472123 -1.090612,0.529167 -0.776649,0.06413 -0.986864,0.184824 -0.921674,0.529166 0.05639,0.297882 0.391394,0.471451 1.008326,0.522431 1.453108,0.120073 1.703088,0.25672 1.318152,0.720537 -0.214694,0.258691 -0.811608,0.393745 -1.740281,0.393745 -1.126699,0 -1.469076,-0.103841 -1.687394,-0.511773 z m 6.612744,0.222935 c -1.502791,-0.612822 -1.240253,-1.348716 0.400917,-1.123767 1.508234,0.206727 1.582328,-0.28243 0.13076,-0.863233 -1.678162,-0.671464 -1.772452,-2.213239 -0.16774,-2.74284 1.026834,-0.338886 2.274427,0.01574 2.274427,0.646504 0,0.294273 -0.286345,0.403424 -1.058333,0.403424 -1.34573,0 -1.350206,0.334248 -0.01151,0.860097 0.749874,0.29456 1.097457,0.612978 1.225349,1.12254 0.317175,1.263721 -1.359392,2.282237 -2.793862,1.697275 z m 11.171177,0.11361 c -0.229804,-0.09273 -0.33073,-0.851848 -0.33073,-2.487613 0,-2.249043 0.02771,-2.361115 0.620533,-2.509904 1.148694,-0.288303 2.67493,-0.02582 2.770106,0.476391 0.06919,0.365098 -0.09821,0.463878 -0.791552,0.467071 -0.483611,0.0021 -1.057889,0.121291 -1.27617,0.264584 -0.352777,0.231584 -0.352777,0.28948 0,0.521065 0.218281,0.143293 0.733028,0.262355 1.143879,0.264583 0.567369,0.0031 0.725905,0.115395 0.659259,0.467072 -0.06133,0.32359 -0.385863,0.487748 -1.077735,0.545139 -1.68307,0.139608 -1.155544,1.108507 0.603538,1.108507 0.861746,0 1.299486,0.47471 0.755478,0.819279 -0.386336,0.244703 -2.518719,0.288938 -3.076606,0.06383 z m 6.085416,0 C 51.530126,97.481826 51.4292,96.722707 51.4292,95.086942 c 0,-2.292091 0.01749,-2.358549 0.663197,-2.520614 0.847691,-0.212757 2.391518,0.07388 2.846057,0.528423 0.22639,0.226391 0.346988,0.995799 0.339235,2.164337 -0.01103,1.662504 -0.06696,1.840886 -0.673489,2.147983 -0.65627,0.332285 -2.209228,0.42373 -2.844271,0.167484 z m 2.075326,-1.160963 c 0.693232,-0.371009 0.394406,-0.780476 -0.569587,-0.780476 -1.040305,0 -1.065197,0.779391 -0.03314,1.037445 0.04595,0.01148 0.317172,-0.104148 0.602724,-0.256969 z m -0.0248,-2.107443 c 0.352777,-0.231585 0.352777,-0.289481 0,-0.521065 -0.485349,-0.318612 -0.566089,-0.320937 -1.026086,-0.02958 -0.402121,0.254701 -0.183695,0.821629 0.314098,0.815229 0.173312,-0.0021 0.493707,-0.12129 0.711988,-0.264583 z m 22.56476,3.258092 c -0.827966,-0.160258 -1.927259,-1.563589 -1.927259,-2.460292 0,-0.977648 1.097952,-2.270111 2.098455,-2.47021 0.963909,-0.192784 2.399462,0.271663 2.399462,0.776303 0,0.401301 -0.19911,0.450138 -1.534592,0.376386 -1.094208,-0.06043 -1.640409,0.378261 -1.640409,1.317521 0,0.919623 0.549635,1.385475 1.505355,1.27589 0.537041,-0.06158 0.767091,-0.250634 0.828151,-0.680577 0.09531,-0.671057 0.777767,-0.804661 1.010624,-0.197845 0.30063,0.783429 -0.147494,1.65989 -1.000768,1.957343 -0.459152,0.160062 -0.906356,0.274809 -0.99378,0.254992 -0.08743,-0.01982 -0.422783,-0.0871 -0.745239,-0.149511 z m 30.162495,0 c -0.82796,-0.160258 -1.92726,-1.563589 -1.92726,-2.460292 0,-0.977648 1.09795,-2.270111 2.09846,-2.47021 0.96391,-0.192784 2.39946,0.271663 2.39946,0.776303 0,0.401301 -0.19911,0.450138 -1.53458,0.376386 -1.09422,-0.06043 -1.64042,0.378261 -1.64042,1.317521 0,0.919623 0.54963,1.385475 1.50536,1.27589 0.53704,-0.06158 0.76709,-0.250634 0.82815,-0.680577 0.0953,-0.671057 0.77777,-0.804661 1.01063,-0.197845 0.30063,0.783429 -0.1475,1.65989 -1.00077,1.957343 -0.45915,0.160062 -0.90637,0.274809 -0.99378,0.254992 -0.0874,-0.01982 -0.42279,-0.0871 -0.74525,-0.149511 z M 40.712014,97.15447 c -0.06448,-0.181901 -0.150045,-1.045104 -0.190132,-1.918229 -0.06514,-1.418709 -0.136187,-1.59649 -0.668203,-1.672047 -0.683638,-0.09709 -0.797727,-0.707205 -0.176797,-0.945478 0.230182,-0.08833 0.93482,-0.1606 1.56586,-0.1606 0.631039,0 1.335677,0.07227 1.565859,0.1606 0.62093,0.238273 0.506842,0.848386 -0.176797,0.945478 -0.515429,0.0732 -0.604591,0.262067 -0.664451,1.407464 -0.03803,0.727604 -0.129593,1.590807 -0.20348,1.918229 -0.143399,0.63546 -0.856769,0.814901 -1.051859,0.264583 z m 16.735843,0.175774 c -0.195643,-0.195641 1.311934,-3.79426 1.83964,-4.391264 0.611701,-0.692025 1.095598,-0.297156 1.952919,1.593626 1.126099,2.483556 1.215776,2.952594 0.564526,2.952594 -0.291248,0 -0.598075,-0.178594 -0.681839,-0.396875 -0.103619,-0.270029 -0.526439,-0.396875 -1.322917,-0.396875 -0.796475,0 -1.219295,0.126846 -1.322917,0.396875 -0.152252,0.396763 -0.737121,0.534212 -1.029412,0.241919 z m 2.712593,-2.374202 c 0,-0.436581 -0.418158,-0.510341 -0.661458,-0.116676 -0.21577,0.349123 0.100597,0.844569 0.415158,0.650158 0.135464,-0.08372 0.2463,-0.323789 0.2463,-0.533482 z m 4.344895,2.173669 c -0.07503,-0.195522 -0.101057,-1.237319 -0.05784,-2.315105 0.0713,-1.778055 0.131572,-1.967166 0.650613,-2.041112 0.42621,-0.06072 0.783564,0.225941 1.401773,1.124479 0.456354,0.663287 0.943076,1.205976 1.081607,1.205976 0.13853,0 0.251872,-0.535781 0.251872,-1.190625 0,-1.014235 0.0784,-1.190625 0.529167,-1.190625 0.489969,0 0.529167,0.17639 0.529167,2.38125 0,2.296113 -0.02127,2.380883 -0.595313,2.370932 -0.395481,-0.0069 -0.906161,-0.42872 -1.521354,-1.256771 -0.867394,-1.167511 -0.930733,-1.204561 -1.000112,-0.584994 -0.153215,1.368195 -0.344728,1.852084 -0.733025,1.852084 -0.220075,0 -0.461524,-0.15997 -0.536552,-0.355489 z m 16.755013,0.200533 c -0.195644,-0.195641 1.311934,-3.79426 1.83964,-4.391264 0.611701,-0.692025 1.095597,-0.297156 1.952919,1.593626 1.126098,2.483556 1.215776,2.952594 0.564525,2.952594 -0.291248,0 -0.598074,-0.178594 -0.681839,-0.396875 -0.103619,-0.270029 -0.526439,-0.396875 -1.322917,-0.396875 -0.796475,0 -1.219295,0.126846 -1.322916,0.396875 -0.152252,0.396763 -0.737122,0.534212 -1.029412,0.241919 z m 2.712593,-2.374202 c 0,-0.436581 -0.418158,-0.510341 -0.661458,-0.116676 -0.215771,0.349123 0.100597,0.844569 0.415157,0.650158 0.135464,-0.08372 0.246301,-0.323789 0.246301,-0.533482 z m 4.233333,0.152948 c 0,-2.331916 0.0127,-2.379393 0.680747,-2.547065 1.176867,-0.295375 2.824771,0.210085 3.269462,1.002835 0.359817,0.641448 0.353036,0.804357 -0.07043,1.692375 -0.328279,0.688409 -0.385106,1.06607 -0.189799,1.261378 0.153324,0.153323 0.278771,0.433551 0.278771,0.622728 0,0.574016 -0.826577,0.385808 -1.500844,-0.341738 -0.516184,-0.556972 -0.708144,-0.625396 -1.022527,-0.36448 -0.212876,0.176671 -0.387046,0.485236 -0.387046,0.685697 0,0.200464 -0.238125,0.36448 -0.529167,0.36448 -0.489886,0 -0.529167,-0.17639 -0.529167,-2.37621 z m 2.858154,-0.698156 c 0.05689,-0.398704 -0.09562,-0.606756 -0.5276,-0.719722 -0.732883,-0.191651 -1.414807,0.395046 -1.177613,1.013166 0.252524,0.658069 1.602586,0.425741 1.705213,-0.293444 z m 3.75643,0.698156 c 0,-2.315626 0.01691,-2.380454 0.663197,-2.542662 0.886788,-0.222567 2.398765,0.08113 2.900172,0.582538 0.478782,0.478783 0.537707,1.981507 0.09506,2.424155 -0.237376,0.237377 -0.237376,0.470427 0,0.99141 0.403553,0.885706 0.397039,0.920769 -0.17113,0.920769 -0.2648,0 -0.738023,-0.295082 -1.051607,-0.655736 -0.633953,-0.72911 -1.377358,-0.645517 -1.377358,0.154877 0,0.324469 -0.186359,0.500859 -0.529166,0.500859 -0.489887,0 -0.529167,-0.17639 -0.529168,-2.37621 z m 2.858066,-0.582502 c 0.09999,-0.528195 -0.792371,-1.075401 -1.383691,-0.848492 -0.228822,0.08781 -0.416042,0.452112 -0.416042,0.809567 0,0.573561 0.100767,0.640173 0.857729,0.567005 0.550291,-0.05319 0.887937,-0.242472 0.942004,-0.52808 z m 3.657516,2.553185 c -0.24798,-0.646235 -0.19173,-3.641432 0.0764,-4.064799 0.13163,-0.207878 0.42367,-0.296434 0.66817,-0.20261 0.63411,0.243329 0.49675,4.4935 -0.14921,4.616852 -0.23635,0.04514 -0.50424,-0.112115 -0.59531,-0.349443 z m 9.88859,0.163245 c 0,-0.51512 1.93015,-4.493562 2.23724,-4.611402 0.17835,-0.06844 0.45732,-0.04222 0.61992,0.05827 0.30364,0.187661 2.16992,4.097081 2.16992,4.545486 0,0.410054 -1.06231,0.282853 -1.22724,-0.146949 -0.10259,-0.267357 -0.52237,-0.396875 -1.2863,-0.396875 -0.76394,0 -1.18371,0.129518 -1.28631,0.396875 -0.16313,0.4251 -1.22723,0.559146 -1.22723,0.154593 z m 2.70316,-2.452058 c -0.40416,-0.404156 -0.70238,-0.105936 -0.47822,0.478213 0.13236,0.344906 0.2471,0.379082 0.48248,0.143703 0.23538,-0.235381 0.23436,-0.383288 -0.004,-0.621916 z M 72.197244,83.928333 c -0.0801,-0.329089 -0.11248,-5.063186 -0.07195,-10.520217 l 0.07369,-9.921876 H 82.782326 93.36566 v 10.451042 10.451042 l -10.511386,0.06918 -10.511388,0.06918 z m 13.62779,-6.750315 c 0.575025,-0.287258 0.958091,-0.688263 1.01059,-1.057923 0.100433,-0.707165 -0.351055,-0.769747 -1.443366,-0.200067 -0.969071,0.505404 -2.555761,0.508518 -3.52575,0.0069 -1.277242,-0.660477 -1.862307,-1.63903 -1.862307,-3.114794 0,-1.178653 0.108855,-1.427215 1.027205,-2.345568 0.939361,-0.939359 1.149284,-1.027205 2.454672,-1.027205 0.876244,0 1.659276,0.162366 2.027772,0.420473 0.330171,0.231261 0.773382,0.35406 0.984914,0.272888 0.648925,-0.249015 0.428924,-0.938699 -0.475292,-1.490011 -1.240174,-0.756148 -3.711083,-0.721405 -5.006999,0.0704 -4.313971,2.63584 -2.604283,8.923301 2.427311,8.926566 0.857705,5.29e-4 1.835436,-0.189 2.38125,-0.461664 z m -36.125931,1.193446 c -0.07058,-0.183923 -0.09713,-4.977559 -0.05901,-10.652523 l 0.06931,-10.318117 H 60.292736 70.87607 v 10.583333 10.583334 l -10.524324,0.06919 c -8.28806,0.05449 -10.551591,-0.0019 -10.652649,-0.265215 z m 13.610709,-7.01924 c 0.562901,-0.41882 0.701768,-0.763717 0.768271,-1.908109 0.04464,-0.768284 0.01347,-1.573311 -0.06928,-1.788946 -0.285613,-0.744299 -0.90691,0.180665 -0.990447,1.474547 -0.07676,1.188939 -0.12138,1.250071 -1.179256,1.615792 -0.917705,0.317264 -1.286851,0.323963 -2.232885,0.04052 -2.894542,-0.867225 -3.745889,-3.90807 -1.674169,-5.97979 1.18492,-1.18492 2.418688,-1.41248 4.261665,-0.786034 0.774398,0.263226 1.481859,0.40473 1.572138,0.314454 0.338296,-0.338299 -0.189521,-1.017619 -1.07964,-1.389533 -2.092638,-0.874361 -4.76658,-0.169175 -6.128351,1.616197 -0.664358,0.871018 -0.763035,1.228124 -0.763035,2.761374 0,1.53325 0.09868,1.890355 0.763035,2.761374 1.094526,1.434997 2.557764,2.052762 4.502994,1.901127 0.971754,-0.07575 1.821463,-0.314905 2.248958,-0.632976 z M 72.18752,61.69967 C 72.11758,61.51742 72.09156,56.725154 72.12968,51.050191 L 72.19899,40.732073 H 82.782326 93.36566 l 0.06915,10.64948 0.06915,10.649479 H 82.90932 c -8.242429,0 -10.62287,-0.07357 -10.721795,-0.331362 z m 12.742188,-5.201901 c 0.598977,-0.272005 1.432415,-0.944732 1.852084,-1.494946 0.664358,-0.871019 0.763034,-1.228125 0.763034,-2.761375 0,-1.534321 -0.09847,-1.890085 -0.765051,-2.764017 -1.161031,-1.52219 -2.58187,-2.035064 -5.381961,-1.942703 l -2.319655,0.07651 -0.07297,4.355468 c -0.04013,2.395508 -0.0141,4.508868 0.05784,4.696354 0.216358,0.563819 4.528667,0.442323 5.866675,-0.165293 z M 80.119631,55.60021 c -0.0729,-0.189974 -0.09893,-1.827083 -0.05784,-3.638021 l 0.0747,-3.292616 1.984375,0.01299 c 2.967574,0.01942 4.33334,1.161968 4.334502,3.626075 0.0011,2.323672 -1.637514,3.635849 -4.541242,3.636569 -1.123461,2.64e-4 -1.704896,-0.111506 -1.794497,-0.344996 z m -30.225014,0.292489 c -0.368253,-0.368253 -0.461309,-20.212988 -0.09747,-20.786136 0.165973,-0.261456 2.47428,-0.318828 10.645426,-0.264583 l 10.433503,0.06926 0.06926,10.433502 c 0.05425,8.171146 -0.0031,10.479453 -0.264584,10.645426 -0.573148,0.36384 -20.417883,0.270783 -20.786135,-0.09747 z m 13.551485,-4.870183 c 0.230185,-0.08833 0.418515,-0.385985 0.418515,-0.661459 0,-0.455816 -0.223131,-0.500859 -2.481146,-0.500859 -2.836847,0 -3.156207,-0.186534 -3.026032,-1.767472 l 0.08322,-1.010653 1.719791,-0.06768 c 2.397332,-0.09434 2.910417,-0.24566 2.910417,-0.858366 0,-0.612707 -0.513085,-0.76403 -2.910417,-0.858367 L 58.440659,45.22999 V 44.039365 42.84874 l 2.435376,-0.132292 c 2.679483,-0.145552 3.519728,-0.534993 2.607283,-1.208437 -0.614622,-0.45363 -5.184957,-0.533926 -5.986095,-0.105171 -0.475009,0.254219 -0.511773,0.595386 -0.511773,4.749352 0,3.983218 0.05093,4.505125 0.463021,4.745147 0.498248,0.290203 5.306087,0.390548 5.997631,0.125177 z"
             id="path3739"
             inkscape:connector-curvature="0" />
          <path
             style="fill:#a1a1a1;stroke-width:0.26458335"
             d="m 27.890592,97.23801 c -0.388347,-0.725633 -0.342615,-3.791022 0.06487,-4.348292 0.471798,-0.645221 3.185413,-0.524246 3.313097,0.147701 0.06731,0.354248 -0.151795,0.464058 -1.055856,0.529166 -1.508298,0.108622 -1.608958,0.837333 -0.132469,0.958985 0.778724,0.06416 0.989089,0.184658 0.923841,0.529167 -0.05801,0.3063 -0.399768,0.472123 -1.090612,0.529167 -0.776649,0.06413 -0.986864,0.184824 -0.921674,0.529166 0.05639,0.297882 0.391394,0.471451 1.008326,0.522431 1.453108,0.120073 1.703088,0.25672 1.318152,0.720537 -0.214694,0.258691 -0.811608,0.393745 -1.740281,0.393745 -1.126699,0 -1.469076,-0.103841 -1.687394,-0.511773 z m 6.612744,0.222935 c -1.502791,-0.612822 -1.240253,-1.348716 0.400917,-1.123767 1.508234,0.206727 1.582328,-0.28243 0.13076,-0.863233 -1.678162,-0.671464 -1.772452,-2.213239 -0.16774,-2.74284 1.026834,-0.338886 2.274427,0.01574 2.274427,0.646504 0,0.294273 -0.286345,0.403424 -1.058333,0.403424 -1.34573,0 -1.350206,0.334248 -0.01151,0.860097 0.749874,0.29456 1.097457,0.612978 1.225349,1.12254 0.317175,1.263721 -1.359392,2.282237 -2.793862,1.697275 z m 11.171177,0.11361 c -0.229804,-0.09273 -0.33073,-0.851848 -0.33073,-2.487613 0,-2.249043 0.02771,-2.361115 0.620533,-2.509904 1.148694,-0.288303 2.67493,-0.02582 2.770106,0.476391 0.06919,0.365098 -0.09821,0.463878 -0.791552,0.467071 -0.483611,0.0021 -1.057889,0.121291 -1.27617,0.264584 -0.352777,0.231584 -0.352777,0.28948 0,0.521065 0.218281,0.143293 0.733028,0.262355 1.143879,0.264583 0.567369,0.0031 0.725905,0.115395 0.659259,0.467072 -0.06133,0.32359 -0.385863,0.487748 -1.077735,0.545139 -1.68307,0.139608 -1.155544,1.108507 0.603538,1.108507 0.861746,0 1.299486,0.47471 0.755478,0.819279 -0.386336,0.244703 -2.518719,0.288938 -3.076606,0.06383 z m 6.085416,0 C 51.530126,97.481826 51.4292,96.722707 51.4292,95.086942 c 0,-2.292091 0.01749,-2.358549 0.663197,-2.520614 0.847691,-0.212757 2.391518,0.07388 2.846057,0.528423 0.22639,0.226391 0.346988,0.995799 0.339235,2.164337 -0.01103,1.662504 -0.06696,1.840886 -0.673489,2.147983 -0.65627,0.332285 -2.209228,0.42373 -2.844271,0.167484 z m 2.075326,-1.160963 c 0.693232,-0.371009 0.394406,-0.780476 -0.569587,-0.780476 -1.040305,0 -1.065197,0.779391 -0.03314,1.037445 0.04595,0.01148 0.317172,-0.104148 0.602724,-0.256969 z m -0.0248,-2.107443 c 0.352777,-0.231585 0.352777,-0.289481 0,-0.521065 -0.485349,-0.318612 -0.566089,-0.320937 -1.026086,-0.02958 -0.402121,0.254701 -0.183695,0.821629 0.314098,0.815229 0.173312,-0.0021 0.493707,-0.12129 0.711988,-0.264583 z m 22.56476,3.258092 c -0.827966,-0.160258 -1.927259,-1.563589 -1.927259,-2.460292 0,-0.977648 1.097952,-2.270111 2.098455,-2.47021 0.963909,-0.192784 2.399462,0.271663 2.399462,0.776303 0,0.401301 -0.19911,0.450138 -1.534592,0.376386 -1.094208,-0.06043 -1.640409,0.378261 -1.640409,1.317521 0,0.919623 0.549635,1.385475 1.505355,1.27589 0.537041,-0.06158 0.767091,-0.250634 0.828151,-0.680577 0.09531,-0.671057 0.777767,-0.804661 1.010624,-0.197845 0.30063,0.783429 -0.147494,1.65989 -1.000768,1.957343 -0.459152,0.160062 -0.906356,0.274809 -0.99378,0.254992 -0.08743,-0.01982 -0.422783,-0.0871 -0.745239,-0.149511 z m 30.162495,0 c -0.82796,-0.160258 -1.92726,-1.563589 -1.92726,-2.460292 0,-0.977648 1.09795,-2.270111 2.09846,-2.47021 0.96391,-0.192784 2.39946,0.271663 2.39946,0.776303 0,0.401301 -0.19911,0.450138 -1.53458,0.376386 -1.09422,-0.06043 -1.64042,0.378261 -1.64042,1.317521 0,0.919623 0.54963,1.385475 1.50536,1.27589 0.53704,-0.06158 0.76709,-0.250634 0.82815,-0.680577 0.0953,-0.671057 0.77777,-0.804661 1.01063,-0.197845 0.30063,0.783429 -0.1475,1.65989 -1.00077,1.957343 -0.45915,0.160062 -0.90637,0.274809 -0.99378,0.254992 -0.0874,-0.01982 -0.42279,-0.0871 -0.74525,-0.149511 z M 40.712014,97.15447 c -0.06448,-0.181901 -0.150045,-1.045104 -0.190132,-1.918229 -0.06514,-1.418709 -0.136187,-1.59649 -0.668203,-1.672047 -0.683638,-0.09709 -0.797727,-0.707205 -0.176797,-0.945478 0.230182,-0.08833 0.93482,-0.1606 1.56586,-0.1606 0.631039,0 1.335677,0.07227 1.565859,0.1606 0.62093,0.238273 0.506842,0.848386 -0.176797,0.945478 -0.515429,0.0732 -0.604591,0.262067 -0.664451,1.407464 -0.03803,0.727604 -0.129593,1.590807 -0.20348,1.918229 -0.143399,0.63546 -0.856769,0.814901 -1.051859,0.264583 z m 16.735843,0.175774 c -0.195643,-0.195641 1.311934,-3.79426 1.83964,-4.391264 0.611701,-0.692025 1.095598,-0.297156 1.952919,1.593626 1.126099,2.483556 1.215776,2.952594 0.564526,2.952594 -0.291248,0 -0.598075,-0.178594 -0.681839,-0.396875 -0.103619,-0.270029 -0.526439,-0.396875 -1.322917,-0.396875 -0.796475,0 -1.219295,0.126846 -1.322917,0.396875 -0.152252,0.396763 -0.737121,0.534212 -1.029412,0.241919 z m 2.712593,-2.374202 c 0,-0.436581 -0.418158,-0.510341 -0.661458,-0.116676 -0.21577,0.349123 0.100597,0.844569 0.415158,0.650158 0.135464,-0.08372 0.2463,-0.323789 0.2463,-0.533482 z m 4.344895,2.173669 c -0.07503,-0.195522 -0.101057,-1.237319 -0.05784,-2.315105 0.0713,-1.778055 0.131572,-1.967166 0.650613,-2.041112 0.42621,-0.06072 0.783564,0.225941 1.401773,1.124479 0.456354,0.663287 0.943076,1.205976 1.081607,1.205976 0.13853,0 0.251872,-0.535781 0.251872,-1.190625 0,-1.014235 0.0784,-1.190625 0.529167,-1.190625 0.489969,0 0.529167,0.17639 0.529167,2.38125 0,2.296113 -0.02127,2.380883 -0.595313,2.370932 -0.395481,-0.0069 -0.906161,-0.42872 -1.521354,-1.256771 -0.867394,-1.167511 -0.930733,-1.204561 -1.000112,-0.584994 -0.153215,1.368195 -0.344728,1.852084 -0.733025,1.852084 -0.220075,0 -0.461524,-0.15997 -0.536552,-0.355489 z m 16.755013,0.200533 c -0.195644,-0.195641 1.311934,-3.79426 1.83964,-4.391264 0.611701,-0.692025 1.095597,-0.297156 1.952919,1.593626 1.126098,2.483556 1.215776,2.952594 0.564525,2.952594 -0.291248,0 -0.598074,-0.178594 -0.681839,-0.396875 -0.103619,-0.270029 -0.526439,-0.396875 -1.322917,-0.396875 -0.796475,0 -1.219295,0.126846 -1.322916,0.396875 -0.152252,0.396763 -0.737122,0.534212 -1.029412,0.241919 z m 2.712593,-2.374202 c 0,-0.436581 -0.418158,-0.510341 -0.661458,-0.116676 -0.215771,0.349123 0.100597,0.844569 0.415157,0.650158 0.135464,-0.08372 0.246301,-0.323789 0.246301,-0.533482 z m 4.233333,0.152948 c 0,-2.331916 0.0127,-2.379393 0.680747,-2.547065 1.176867,-0.295375 2.824771,0.210085 3.269462,1.002835 0.359817,0.641448 0.353036,0.804357 -0.07043,1.692375 -0.328279,0.688409 -0.385106,1.06607 -0.189799,1.261378 0.153324,0.153323 0.278771,0.433551 0.278771,0.622728 0,0.574016 -0.826577,0.385808 -1.500844,-0.341738 -0.516184,-0.556972 -0.708144,-0.625396 -1.022527,-0.36448 -0.212876,0.176671 -0.387046,0.485236 -0.387046,0.685697 0,0.200464 -0.238125,0.36448 -0.529167,0.36448 -0.489886,0 -0.529167,-0.17639 -0.529167,-2.37621 z m 2.858154,-0.698156 c 0.05689,-0.398704 -0.09562,-0.606756 -0.5276,-0.719722 -0.732883,-0.191651 -1.414807,0.395046 -1.177613,1.013166 0.252524,0.658069 1.602586,0.425741 1.705213,-0.293444 z m 3.75643,0.698156 c 0,-2.315626 0.01691,-2.380454 0.663197,-2.542662 0.886788,-0.222567 2.398765,0.08113 2.900172,0.582538 0.478782,0.478783 0.537707,1.981507 0.09506,2.424155 -0.237376,0.237377 -0.237376,0.470427 0,0.99141 0.403553,0.885706 0.397039,0.920769 -0.17113,0.920769 -0.2648,0 -0.738023,-0.295082 -1.051607,-0.655736 -0.633953,-0.72911 -1.377358,-0.645517 -1.377358,0.154877 0,0.324469 -0.186359,0.500859 -0.529166,0.500859 -0.489887,0 -0.529167,-0.17639 -0.529168,-2.37621 z m 2.858066,-0.582502 c 0.09999,-0.528195 -0.792371,-1.075401 -1.383691,-0.848492 -0.228822,0.08781 -0.416042,0.452112 -0.416042,0.809567 0,0.573561 0.100767,0.640173 0.857729,0.567005 0.550291,-0.05319 0.887937,-0.242472 0.942004,-0.52808 z m 3.657516,2.553185 c -0.24798,-0.646235 -0.19173,-3.641432 0.0764,-4.064799 0.13163,-0.207878 0.42367,-0.296434 0.66817,-0.20261 0.63411,0.243329 0.49675,4.4935 -0.14921,4.616852 -0.23635,0.04514 -0.50424,-0.112115 -0.59531,-0.349443 z m 9.88859,0.163245 c 0,-0.51512 1.93015,-4.493562 2.23724,-4.611402 0.17835,-0.06844 0.45732,-0.04222 0.61992,0.05827 0.30364,0.187661 2.16992,4.097081 2.16992,4.545486 0,0.410054 -1.06231,0.282853 -1.22724,-0.146949 -0.10259,-0.267357 -0.52237,-0.396875 -1.2863,-0.396875 -0.76394,0 -1.18371,0.129518 -1.28631,0.396875 -0.16313,0.4251 -1.22723,0.559146 -1.22723,0.154593 z m 2.70316,-2.452058 c -0.40416,-0.404156 -0.70238,-0.105936 -0.47822,0.478213 0.13236,0.344906 0.2471,0.379082 0.48248,0.143703 0.23538,-0.235381 0.23436,-0.383288 -0.004,-0.621916 z M 72.197244,83.928333 c -0.0801,-0.329089 -0.11248,-5.063186 -0.07195,-10.520217 l 0.07369,-9.921876 H 82.782326 93.36566 v 10.451042 10.451042 l -10.511386,0.06918 -10.511388,0.06918 z m 13.62779,-6.750315 c 0.575025,-0.287258 0.958091,-0.688263 1.01059,-1.057923 0.100433,-0.707165 -0.351055,-0.769747 -1.443366,-0.200067 -0.969071,0.505404 -2.555761,0.508518 -3.52575,0.0069 -1.277242,-0.660477 -1.862307,-1.63903 -1.862307,-3.114794 0,-1.178653 0.108855,-1.427215 1.027205,-2.345568 0.939361,-0.939359 1.149284,-1.027205 2.454672,-1.027205 0.876244,0 1.659276,0.162366 2.027772,0.420473 0.330171,0.231261 0.773382,0.35406 0.984914,0.272888 0.648925,-0.249015 0.428924,-0.938699 -0.475292,-1.490011 -1.240174,-0.756148 -3.711083,-0.721405 -5.006999,0.0704 -4.313971,2.63584 -2.604283,8.923301 2.427311,8.926566 0.857705,5.29e-4 1.835436,-0.189 2.38125,-0.461664 z m -35.861395,0.92873 c -0.07064,-0.184073 -0.0972,-4.858676 -0.05904,-10.38801 l 0.06939,-10.053331 10.38797,-0.06922 10.387971,-0.06922 -0.06922,10.387971 -0.06922,10.38797 -10.259713,0.06926 c -8.079264,0.05454 -10.287009,-0.0019 -10.38814,-0.265419 z m 13.117311,-6.352278 1.180542,-0.595313 0.07781,-1.922055 c 0.06254,-1.544741 -0.003,-1.953085 -0.334097,-2.080122 -0.696111,-0.267121 -1.198925,0.412678 -1.198925,1.620927 0,1.253972 -0.263837,1.573668 -1.520439,1.842352 -1.767803,0.377989 -3.768418,-0.948642 -4.166952,-2.763157 -0.220258,-1.002816 0.49389,-2.530928 1.540097,-3.295455 0.918845,-0.671457 2.842334,-0.701781 4.064212,-0.06407 0.764175,0.39883 0.881586,0.401323 1.256247,0.02666 1.040146,-1.040143 -1.391452,-2.38575 -3.930684,-2.175179 -5.347473,0.443455 -6.422208,7.720515 -1.435294,9.718418 1.154179,0.462397 3.21632,0.317919 4.467479,-0.313004 z m 9.313408,-20.372917 0.06922,-10.384897 h 10.31875 10.31875 l 0.06922,10.384897 0.06921,10.384896 H 82.782326 72.325143 Z m 12.847982,5.319683 c 3.617317,-1.751113 3.604869,-7.174489 -0.0205,-8.929497 -1.023001,-0.495226 -1.562823,-0.566412 -3.800322,-0.50115 l -2.607937,0.07607 -0.07264,4.620913 c -0.03995,2.541501 -0.01392,4.773922 0.05784,4.960938 0.0939,0.244692 0.851197,0.340024 2.701081,0.340024 2.087433,0 2.790868,-0.106627 3.742479,-0.567296 z m -4.8587,-1.36711 C 80.31042,55.143327 80.2844,53.62528 80.3258,51.960688 l 0.07528,-3.026531 1.76158,0.01976 c 2.629688,0.02949 3.999122,1.165352 3.999122,3.317026 0,1.280313 -0.671135,2.298094 -1.94305,2.946662 -1.092073,0.55686 -3.63645,0.634169 -3.835088,0.116525 z m -30.489023,0.558573 c -0.368253,-0.368253 -0.461309,-20.212988 -0.09747,-20.786136 0.165973,-0.261456 2.47428,-0.318828 10.645426,-0.264583 l 10.433503,0.06926 0.06926,10.433502 c 0.05425,8.171146 -0.0031,10.479453 -0.264584,10.645426 -0.573148,0.36384 -20.417883,0.270783 -20.786135,-0.09747 z m 13.551485,-4.870183 c 0.230185,-0.08833 0.418515,-0.385985 0.418515,-0.661459 0,-0.455816 -0.223131,-0.500859 -2.481146,-0.500859 -2.836847,0 -3.156207,-0.186534 -3.026032,-1.767472 l 0.08322,-1.010653 1.719791,-0.06768 c 2.397332,-0.09434 2.910417,-0.24566 2.910417,-0.858366 0,-0.612707 -0.513085,-0.76403 -2.910417,-0.858367 L 58.440659,45.22999 V 44.039365 42.84874 l 2.435376,-0.132292 c 2.679483,-0.145552 3.519728,-0.534993 2.607283,-1.208437 -0.614622,-0.45363 -5.184957,-0.533926 -5.986095,-0.105171 -0.475009,0.254219 -0.511773,0.595386 -0.511773,4.749352 0,3.983218 0.05093,4.505125 0.463021,4.745147 0.498248,0.290203 5.306087,0.390548 5.997631,0.125177 z"
             id="path3737"
             inkscape:connector-curvature="0" />
          <path
             style="fill:#878787;stroke-width:0.26458335"
             d="m 28.041882,97.066684 c -0.237564,-0.619082 -0.187171,-3.62785 0.06749,-4.029408 0.14561,-0.229606 0.658588,-0.319059 1.517303,-0.264584 1.515185,0.09612 1.62817,0.552419 0.184163,0.743757 -1.429198,0.189376 -1.545172,0.993397 -0.159755,1.107546 1.217768,0.100336 1.234195,0.56097 0.02655,0.744538 -0.642434,0.09765 -0.891895,0.283972 -0.952757,0.711594 -0.07225,0.507609 0.05619,0.589471 1.03777,0.661458 0.61612,0.04519 1.16916,0.230984 1.228977,0.412885 0.176125,0.535589 -2.743876,0.448689 -2.94974,-0.08779 z m 6.52013,0.145688 c -0.94516,-0.37991 -0.69392,-0.700889 0.529167,-0.67605 1.468567,0.02982 1.498034,-0.541962 0.06615,-1.283528 -1.303012,-0.674823 -1.519685,-1.508538 -0.556131,-2.139882 0.455235,-0.29828 0.922269,-0.380897 1.47142,-0.260284 1.099434,0.241478 1.012103,0.614334 -0.167233,0.713994 -1.20972,0.10223 -1.429673,0.632153 -0.43811,1.055524 1.719032,0.733981 2.149946,1.706232 1.08639,2.451177 -0.656257,0.459658 -1.114431,0.491646 -1.991649,0.139049 z m 11.157916,-0.08266 c -0.07503,-0.195522 -0.101057,-1.237319 -0.05784,-2.315105 l 0.07857,-1.959615 1.416032,-0.08091 c 1.072769,-0.0613 1.388446,0.0028 1.302234,0.264584 -0.06259,0.190018 -0.580739,0.405021 -1.151448,0.477781 -1.337495,0.170519 -1.425086,0.869408 -0.132641,1.058334 1.28216,0.187423 1.350089,0.740248 0.103576,0.842946 -0.8045,0.06628 -1.008586,0.190172 -1.008586,0.612262 0,0.416727 0.220485,0.557276 1.037651,0.661459 0.570709,0.07276 1.086646,0.281119 1.146527,0.46302 0.15803,0.480037 -2.549777,0.455515 -2.734075,-0.02477 z m 6.085417,0 c -0.07503,-0.195522 -0.101057,-1.237319 -0.05784,-2.315105 l 0.07857,-1.959615 1.058334,-0.07789 c 1.657736,-0.12201 2.079373,0.353994 2.160553,2.439127 0.06493,1.667627 0.03328,1.773865 -0.60021,2.014715 -0.977085,0.371489 -2.48013,0.313841 -2.639407,-0.101229 z m 2.585284,-0.803056 c 0.294804,-0.44858 -0.316805,-0.958122 -1.150046,-0.958122 -0.928839,0 -1.316493,0.71461 -0.651449,1.200899 0.483515,0.353557 1.499579,0.216627 1.801495,-0.242777 z m -0.183304,-2.311347 c 0,-0.462036 -1.41492,-0.646589 -1.818169,-0.237149 -0.22221,0.225621 -0.173556,0.395338 0.190363,0.66406 0.568978,0.420139 1.627806,0.142449 1.627806,-0.426911 z m 12.815896,2.088764 c -0.604769,-0.768347 -1.198838,-1.434407 -1.320152,-1.48013 -0.121314,-0.04572 -0.257172,0.480754 -0.301908,1.169946 -0.04569,0.703963 -0.226264,1.300784 -0.412065,1.361948 -0.246152,0.08103 -0.330729,-0.434065 -0.330729,-2.014223 0,-2.882292 0.178377,-2.952425 1.938481,-0.762169 0.556842,0.692927 1.122389,1.191916 1.256771,1.108863 0.134384,-0.08305 0.244332,-0.67976 0.244332,-1.326015 0,-0.646255 0.119062,-1.175009 0.264583,-1.175009 0.340778,0 0.352602,4.147703 0.01243,4.357947 -0.138686,0.08571 -0.746969,-0.472808 -1.351737,-1.241158 z m 9.106686,1.128784 c -1.436134,-0.604912 -1.850641,-2.513441 -0.7787,-3.585382 0.810408,-0.810408 1.690423,-1.0321 2.649495,-0.667462 0.961406,0.365527 0.664974,0.67691 -0.545156,0.572651 -1.1402,-0.09824 -1.949262,0.545642 -1.949262,1.551286 0,1.507456 2.147361,2.169161 2.795612,0.861465 0.315626,-0.636706 0.643972,-0.530362 0.643972,0.208569 0,0.908841 -1.675969,1.539049 -2.815961,1.058873 z m 30.162503,0 c -1.43614,-0.604912 -1.85064,-2.513441 -0.7787,-3.585382 0.81041,-0.810408 1.69042,-1.0321 2.64949,-0.667462 0.96141,0.365527 0.66498,0.67691 -0.54515,0.572651 -1.1402,-0.09824 -1.94927,0.545642 -1.94927,1.551286 0,1.507456 2.14737,2.169161 2.79562,0.861465 0.31562,-0.636706 0.64397,-0.530362 0.64397,0.208569 0,0.908841 -1.67597,1.539049 -2.81596,1.058873 z m -65.446543,-1.83564 c 0,-1.732126 -0.03365,-1.831848 -0.67228,-1.992132 -1.099032,-0.275839 -0.462061,-0.682385 1.069155,-0.682385 1.531215,0 2.168186,0.406546 1.069154,0.682385 -0.638627,0.160284 -0.672279,0.260006 -0.672279,1.992132 0,1.444411 -0.08249,1.8234 -0.396875,1.8234 -0.314386,0 -0.396875,-0.378989 -0.396875,-1.8234 z M 57.7792,96.860338 c 0,-0.460065 1.504138,-3.790304 1.792394,-3.968456 0.415165,-0.256588 0.787659,0.238689 1.631997,2.169919 0.879251,2.01109 0.898184,2.561037 0.06213,1.804416 -0.6296,-0.56978 -2.647831,-0.599736 -2.86167,-0.04248 -0.190172,0.495578 -0.624848,0.521036 -0.624848,0.0366 z m 2.641783,-1.71855 c -0.0021,-0.239091 -0.123555,-0.613307 -0.269613,-0.831589 -0.229854,-0.343516 -0.318241,-0.327824 -0.657405,0.116716 -0.478803,0.627563 -0.502531,1.123495 -0.06112,1.277469 0.520491,0.181557 0.992566,-0.08722 0.988138,-0.562596 z m 21.170718,1.71855 c 0,-0.460065 1.504138,-3.790304 1.792393,-3.968456 0.415166,-0.256588 0.78766,0.238689 1.631998,2.169919 0.87925,2.01109 0.898184,2.561037 0.06213,1.804416 -0.6296,-0.56978 -2.647831,-0.599736 -2.86167,-0.04248 -0.190172,0.495578 -0.624848,0.521036 -0.624848,0.0366 z m 2.641783,-1.71855 c -0.0021,-0.239091 -0.123556,-0.613307 -0.269613,-0.831589 -0.229855,-0.343516 -0.318241,-0.327824 -0.657405,0.116716 -0.478804,0.627563 -0.502531,1.123495 -0.06112,1.277469 0.520491,0.181557 0.992566,-0.08722 0.988137,-0.562596 z m 4.29283,-0.103984 0.07685,-2.182813 0.891271,-0.08525 c 2.026192,-0.193804 3.205485,1.096857 2.285344,2.501168 -0.358535,0.547195 -0.39356,0.824028 -0.16713,1.320987 0.366303,0.80395 -0.208137,0.885746 -0.699124,0.09955 -0.18283,-0.292757 -0.617014,-0.529167 -0.971857,-0.529167 -0.409014,0 -0.702233,0.191714 -0.809337,0.529167 -0.387387,1.220549 -0.679169,0.424357 -0.606012,-1.653646 z m 2.54739,0.09832 c 0.194633,-0.12337 0.313695,-0.5085 0.264583,-0.855845 -0.07273,-0.514398 -0.267084,-0.646396 -1.047816,-0.711647 -1.037079,-0.08667 -1.442239,0.375631 -1.146315,1.30801 0.165743,0.52221 1.278892,0.671904 1.929548,0.259482 z m 4.067193,-0.09539 c 0.06614,-1.876168 0.14504,-2.192922 0.566288,-2.273448 0.971632,-0.185735 2.292948,0.245126 2.711715,0.884248 0.381883,0.582827 0.38201,0.713724 0.0013,1.47661 -0.234331,0.469726 -0.348459,1.11256 -0.260057,1.464784 0.193429,0.770689 -0.29659,0.840298 -0.693576,0.09853 -0.169913,-0.317485 -0.55399,-0.529167 -0.96012,-0.529167 -0.454406,0 -0.722408,0.173948 -0.8153,0.529167 -0.327176,1.251119 -0.621557,0.368207 -0.550384,-1.65072 z m 2.579849,-0.05638 c 0.176835,-0.213074 0.240176,-0.632031 0.142217,-0.940673 -0.14419,-0.4543 -0.354301,-0.541663 -1.144138,-0.475718 -0.984721,0.08221 -1.328756,0.569187 -1.002596,1.419148 0.190235,0.495747 1.592397,0.493818 2.004517,-0.0028 z m 3.825074,1.877663 c -0.26539,-0.691604 0.0129,-3.697449 0.35265,-3.809637 0.24631,-0.08132 0.33073,0.4367 0.33073,2.029521 0,1.292807 -0.10793,2.138714 -0.27288,2.138714 -0.15009,0 -0.33482,-0.161369 -0.4105,-0.358598 z m 9.9559,0.160161 c 0.0302,-0.495501 2.00109,-4.167188 2.23686,-4.167188 0.23576,0 2.20665,3.671687 2.23686,4.167188 0.0225,0.369879 -0.72405,0.201012 -0.87734,-0.198438 -0.1035,-0.26974 -0.52598,-0.396875 -1.31882,-0.396875 -0.71414,0 -1.29427,0.153914 -1.49591,0.396875 -0.34735,0.418534 -0.80211,0.533982 -0.78165,0.198438 z m 2.89832,-1.699348 c 0,-0.139517 -0.12737,-0.491654 -0.28304,-0.782526 -0.22602,-0.422323 -0.35926,-0.46559 -0.66146,-0.214791 -0.46645,0.387119 -0.49535,1.222716 -0.0477,1.37887 0.4355,0.151914 0.99219,-0.06216 0.99219,-0.381553 z M 72.331284,73.934248 V 63.347877 l 10.517188,0.06918 10.517188,0.06918 0.07369,9.921876 c 0.04053,5.457031 0.0085,10.189766 -0.07119,10.517187 l -0.144881,0.595313 H 82.777286 72.331284 Z m 13.259631,3.448931 c 0.467852,-0.01815 1.514978,-1.130967 1.384398,-1.471256 -0.188836,-0.492096 -0.628282,-0.489844 -1.583055,0.0081 -1.132165,0.590465 -2.774175,0.502539 -3.823721,-0.204751 -1.123244,-0.756954 -1.555457,-1.598604 -1.560436,-3.038652 -0.0031,-0.911519 0.164505,-1.312125 0.872408,-2.084581 0.744463,-0.81235 1.089107,-0.976662 2.29072,-1.092123 1.053306,-0.101209 1.638451,-0.01527 2.291922,0.336661 0.699492,0.3767 0.956201,0.407257 1.265425,0.150622 0.55939,-0.464249 0.268364,-0.945425 -0.886891,-1.466371 -2.335583,-1.053201 -5.374032,-0.189622 -6.661328,1.893266 -0.77125,1.24791 -0.824328,3.25126 -0.123764,4.671274 0.903153,1.830652 3.375721,2.970355 5.445525,2.510057 0.509323,-0.113268 0.999281,-0.20878 1.088797,-0.212251 z m -35.627276,0.723569 c -0.07064,-0.184073 -0.0972,-4.858676 -0.05904,-10.38801 l 0.06939,-10.053331 10.38797,-0.06922 10.387971,-0.06922 -0.06922,10.387971 -0.06922,10.38797 -10.259713,0.06926 c -8.079264,0.05454 -10.287009,-0.0019 -10.38814,-0.265419 z m 13.117311,-6.352278 1.180542,-0.595313 0.07781,-1.922055 c 0.06254,-1.544741 -0.003,-1.953085 -0.334097,-2.080122 -0.696111,-0.267121 -1.198925,0.412678 -1.198925,1.620927 0,1.253972 -0.263837,1.573668 -1.520439,1.842352 -1.767803,0.377989 -3.768418,-0.948642 -4.166952,-2.763157 -0.220258,-1.002816 0.49389,-2.530928 1.540097,-3.295455 0.918845,-0.671457 2.842334,-0.701781 4.064212,-0.06407 0.764175,0.39883 0.881586,0.401323 1.256247,0.02666 1.040146,-1.040143 -1.391452,-2.38575 -3.930684,-2.175179 -5.347473,0.443455 -6.422208,7.720515 -1.435294,9.718418 1.154179,0.462397 3.21632,0.317919 4.467479,-0.313004 z m 9.313408,-20.372917 0.06922,-10.384897 h 10.31875 10.31875 l 0.06922,10.384897 0.06921,10.384896 H 82.782326 72.325143 Z m 12.847982,5.319683 c 3.617317,-1.751113 3.604869,-7.174489 -0.0205,-8.929497 -1.023001,-0.495226 -1.562823,-0.566412 -3.800322,-0.50115 l -2.607937,0.07607 -0.07264,4.620913 c -0.03995,2.541501 -0.01392,4.773922 0.05784,4.960938 0.0939,0.244692 0.851197,0.340024 2.701081,0.340024 2.087433,0 2.790868,-0.106627 3.742479,-0.567296 z m -4.8587,-1.36711 C 80.31042,55.143327 80.2844,53.62528 80.3258,51.960688 l 0.07528,-3.026531 1.76158,0.01976 c 2.629688,0.02949 3.999122,1.165352 3.999122,3.317026 0,1.280313 -0.671135,2.298094 -1.94305,2.946662 -1.092073,0.55686 -3.63645,0.634169 -3.835088,0.116525 z M 49.756499,55.77222 c -0.254947,-0.254947 -0.215596,-20.262003 0.04065,-20.665657 0.165973,-0.261456 2.47428,-0.318828 10.645426,-0.264583 l 10.433503,0.06926 v 10.451042 10.451042 l -10.470098,0.06914 c -5.75855,0.03803 -10.550816,-0.01159 -10.649479,-0.110244 z m 13.689603,-4.749704 c 0.230185,-0.08833 0.418515,-0.38059 0.418515,-0.64947 0,-0.56832 -0.753578,-0.746602 -3.571875,-0.845035 l -1.852083,-0.06469 v -1.190625 -1.190625 l 1.719791,-0.06768 c 2.397332,-0.09434 2.910417,-0.24566 2.910417,-0.858366 0,-0.612707 -0.513085,-0.76403 -2.910417,-0.858367 L 58.440659,45.22999 V 44.039365 42.84874 l 2.435376,-0.132292 c 2.679483,-0.145552 3.519728,-0.534993 2.607283,-1.208437 -0.662194,-0.488741 -5.702977,-0.538953 -6.180368,-0.06156 -0.221443,0.221443 -0.3175,1.646296 -0.3175,4.709584 0,3.063287 0.09606,4.48814 0.3175,4.709583 0.332994,0.332994 5.35032,0.46114 6.143152,0.156901 z"
             id="path3735"
             inkscape:connector-curvature="0" />
          <path
             style="fill:#666666;stroke-width:0.26458335"
             d="m 28.041882,97.066684 c -0.237564,-0.619082 -0.187171,-3.62785 0.06749,-4.029408 0.14561,-0.229606 0.658588,-0.319059 1.517303,-0.264584 1.515185,0.09612 1.62817,0.552419 0.184163,0.743757 -1.429198,0.189376 -1.545172,0.993397 -0.159755,1.107546 1.217768,0.100336 1.234195,0.56097 0.02655,0.744538 -0.642434,0.09765 -0.891895,0.283972 -0.952757,0.711594 -0.07225,0.507609 0.05619,0.589471 1.03777,0.661458 0.61612,0.04519 1.16916,0.230984 1.228977,0.412885 0.176125,0.535589 -2.743876,0.448689 -2.94974,-0.08779 z m 6.52013,0.145688 c -0.94516,-0.37991 -0.69392,-0.700889 0.529167,-0.67605 1.468567,0.02982 1.498034,-0.541962 0.06615,-1.283528 -1.303012,-0.674823 -1.519685,-1.508538 -0.556131,-2.139882 0.455235,-0.29828 0.922269,-0.380897 1.47142,-0.260284 1.099434,0.241478 1.012103,0.614334 -0.167233,0.713994 -1.20972,0.10223 -1.429673,0.632153 -0.43811,1.055524 1.719032,0.733981 2.149946,1.706232 1.08639,2.451177 -0.656257,0.459658 -1.114431,0.491646 -1.991649,0.139049 z m 11.157916,-0.08266 c -0.07503,-0.195522 -0.101057,-1.237319 -0.05784,-2.315105 l 0.07857,-1.959615 1.416032,-0.08091 c 1.072769,-0.0613 1.388446,0.0028 1.302234,0.264584 -0.06259,0.190018 -0.580739,0.405021 -1.151448,0.477781 -1.337495,0.170519 -1.425086,0.869408 -0.132641,1.058334 1.28216,0.187423 1.350089,0.740248 0.103576,0.842946 -0.8045,0.06628 -1.008586,0.190172 -1.008586,0.612262 0,0.416727 0.220485,0.557276 1.037651,0.661459 0.570709,0.07276 1.086646,0.281119 1.146527,0.46302 0.15803,0.480037 -2.549777,0.455515 -2.734075,-0.02477 z m 6.085417,0 c -0.07503,-0.195522 -0.101057,-1.237319 -0.05784,-2.315105 l 0.07857,-1.959615 1.058334,-0.07789 c 1.657736,-0.12201 2.079373,0.353994 2.160553,2.439127 0.06493,1.667627 0.03328,1.773865 -0.60021,2.014715 -0.977085,0.371489 -2.48013,0.313841 -2.639407,-0.101229 z m 2.585284,-0.803056 c 0.294804,-0.44858 -0.316805,-0.958122 -1.150046,-0.958122 -0.928839,0 -1.316493,0.71461 -0.651449,1.200899 0.483515,0.353557 1.499579,0.216627 1.801495,-0.242777 z m -0.183304,-2.311347 c 0,-0.462036 -1.41492,-0.646589 -1.818169,-0.237149 -0.22221,0.225621 -0.173556,0.395338 0.190363,0.66406 0.568978,0.420139 1.627806,0.142449 1.627806,-0.426911 z m 12.815896,2.088764 c -0.604769,-0.768347 -1.198838,-1.434407 -1.320152,-1.48013 -0.121314,-0.04572 -0.257172,0.480754 -0.301908,1.169946 -0.04569,0.703963 -0.226264,1.300784 -0.412065,1.361948 -0.246152,0.08103 -0.330729,-0.434065 -0.330729,-2.014223 0,-2.882292 0.178377,-2.952425 1.938481,-0.762169 0.556842,0.692927 1.122389,1.191916 1.256771,1.108863 0.134384,-0.08305 0.244332,-0.67976 0.244332,-1.326015 0,-0.646255 0.119062,-1.175009 0.264583,-1.175009 0.340778,0 0.352602,4.147703 0.01243,4.357947 -0.138686,0.08571 -0.746969,-0.472808 -1.351737,-1.241158 z m 9.106686,1.128784 c -1.436134,-0.604912 -1.850641,-2.513441 -0.7787,-3.585382 0.810408,-0.810408 1.690423,-1.0321 2.649495,-0.667462 0.961406,0.365527 0.664974,0.67691 -0.545156,0.572651 -1.1402,-0.09824 -1.949262,0.545642 -1.949262,1.551286 0,1.507456 2.147361,2.169161 2.795612,0.861465 0.315626,-0.636706 0.643972,-0.530362 0.643972,0.208569 0,0.908841 -1.675969,1.539049 -2.815961,1.058873 z m 30.162503,0 c -1.43614,-0.604912 -1.85064,-2.513441 -0.7787,-3.585382 0.81041,-0.810408 1.69042,-1.0321 2.64949,-0.667462 0.96141,0.365527 0.66498,0.67691 -0.54515,0.572651 -1.1402,-0.09824 -1.94927,0.545642 -1.94927,1.551286 0,1.507456 2.14737,2.169161 2.79562,0.861465 0.31562,-0.636706 0.64397,-0.530362 0.64397,0.208569 0,0.908841 -1.67597,1.539049 -2.81596,1.058873 z m -65.446543,-1.83564 c 0,-1.732126 -0.03365,-1.831848 -0.67228,-1.992132 -1.099032,-0.275839 -0.462061,-0.682385 1.069155,-0.682385 1.531215,0 2.168186,0.406546 1.069154,0.682385 -0.638627,0.160284 -0.672279,0.260006 -0.672279,1.992132 0,1.444411 -0.08249,1.8234 -0.396875,1.8234 -0.314386,0 -0.396875,-0.378989 -0.396875,-1.8234 z M 57.7792,96.860338 c 0,-0.460065 1.504138,-3.790304 1.792394,-3.968456 0.415165,-0.256588 0.787659,0.238689 1.631997,2.169919 0.879251,2.01109 0.898184,2.561037 0.06213,1.804416 -0.6296,-0.56978 -2.647831,-0.599736 -2.86167,-0.04248 -0.190172,0.495578 -0.624848,0.521036 -0.624848,0.0366 z m 2.641783,-1.71855 c -0.0021,-0.239091 -0.123555,-0.613307 -0.269613,-0.831589 -0.229854,-0.343516 -0.318241,-0.327824 -0.657405,0.116716 -0.478803,0.627563 -0.502531,1.123495 -0.06112,1.277469 0.520491,0.181557 0.992566,-0.08722 0.988138,-0.562596 z m 21.170718,1.71855 c 0,-0.460065 1.504138,-3.790304 1.792393,-3.968456 0.415166,-0.256588 0.78766,0.238689 1.631998,2.169919 0.87925,2.01109 0.898184,2.561037 0.06213,1.804416 -0.6296,-0.56978 -2.647831,-0.599736 -2.86167,-0.04248 -0.190172,0.495578 -0.624848,0.521036 -0.624848,0.0366 z m 2.641783,-1.71855 c -0.0021,-0.239091 -0.123556,-0.613307 -0.269613,-0.831589 -0.229855,-0.343516 -0.318241,-0.327824 -0.657405,0.116716 -0.478804,0.627563 -0.502531,1.123495 -0.06112,1.277469 0.520491,0.181557 0.992566,-0.08722 0.988137,-0.562596 z m 4.29283,-0.103984 0.07685,-2.182813 0.891271,-0.08525 c 2.026192,-0.193804 3.205485,1.096857 2.285344,2.501168 -0.358535,0.547195 -0.39356,0.824028 -0.16713,1.320987 0.366303,0.80395 -0.208137,0.885746 -0.699124,0.09955 -0.18283,-0.292757 -0.617014,-0.529167 -0.971857,-0.529167 -0.409014,0 -0.702233,0.191714 -0.809337,0.529167 -0.387387,1.220549 -0.679169,0.424357 -0.606012,-1.653646 z m 2.54739,0.09832 c 0.194633,-0.12337 0.313695,-0.5085 0.264583,-0.855845 -0.07273,-0.514398 -0.267084,-0.646396 -1.047816,-0.711647 -1.037079,-0.08667 -1.442239,0.375631 -1.146315,1.30801 0.165743,0.52221 1.278892,0.671904 1.929548,0.259482 z m 4.067193,-0.09539 c 0.06614,-1.876168 0.14504,-2.192922 0.566288,-2.273448 0.971632,-0.185735 2.292948,0.245126 2.711715,0.884248 0.381883,0.582827 0.38201,0.713724 0.0013,1.47661 -0.234331,0.469726 -0.348459,1.11256 -0.260057,1.464784 0.193429,0.770689 -0.29659,0.840298 -0.693576,0.09853 -0.169913,-0.317485 -0.55399,-0.529167 -0.96012,-0.529167 -0.454406,0 -0.722408,0.173948 -0.8153,0.529167 -0.327176,1.251119 -0.621557,0.368207 -0.550384,-1.65072 z m 2.579849,-0.05638 c 0.176835,-0.213074 0.240176,-0.632031 0.142217,-0.940673 -0.14419,-0.4543 -0.354301,-0.541663 -1.144138,-0.475718 -0.984721,0.08221 -1.328756,0.569187 -1.002596,1.419148 0.190235,0.495747 1.592397,0.493818 2.004517,-0.0028 z m 3.825074,1.877663 c -0.26539,-0.691604 0.0129,-3.697449 0.35265,-3.809637 0.24631,-0.08132 0.33073,0.4367 0.33073,2.029521 0,1.292807 -0.10793,2.138714 -0.27288,2.138714 -0.15009,0 -0.33482,-0.161369 -0.4105,-0.358598 z m 9.9559,0.160161 c 0.0302,-0.495501 2.00109,-4.167188 2.23686,-4.167188 0.23576,0 2.20665,3.671687 2.23686,4.167188 0.0225,0.369879 -0.72405,0.201012 -0.87734,-0.198438 -0.1035,-0.26974 -0.52598,-0.396875 -1.31882,-0.396875 -0.71414,0 -1.29427,0.153914 -1.49591,0.396875 -0.34735,0.418534 -0.80211,0.533982 -0.78165,0.198438 z m 2.89832,-1.699348 c 0,-0.139517 -0.12737,-0.491654 -0.28304,-0.782526 -0.22602,-0.422323 -0.35926,-0.46559 -0.66146,-0.214791 -0.46645,0.387119 -0.49535,1.222716 -0.0477,1.37887 0.4355,0.151914 0.99219,-0.06216 0.99219,-0.381553 z M 72.331284,73.934248 V 63.347877 l 10.517188,0.06918 10.517188,0.06918 0.07369,9.921876 c 0.04053,5.457031 0.0085,10.189766 -0.07119,10.517187 l -0.144881,0.595313 H 82.777286 72.331284 Z m 13.259631,3.448931 c 0.467852,-0.01815 1.514978,-1.130967 1.384398,-1.471256 -0.188836,-0.492096 -0.628282,-0.489844 -1.583055,0.0081 -1.132165,0.590465 -2.774175,0.502539 -3.823721,-0.204751 -1.123244,-0.756954 -1.555457,-1.598604 -1.560436,-3.038652 -0.0031,-0.911519 0.164505,-1.312125 0.872408,-2.084581 0.744463,-0.81235 1.089107,-0.976662 2.29072,-1.092123 1.053306,-0.101209 1.638451,-0.01527 2.291922,0.336661 0.699492,0.3767 0.956201,0.407257 1.265425,0.150622 0.55939,-0.464249 0.268364,-0.945425 -0.886891,-1.466371 -2.335583,-1.053201 -5.374032,-0.189622 -6.661328,1.893266 -0.77125,1.24791 -0.824328,3.25126 -0.123764,4.671274 0.903153,1.830652 3.375721,2.970355 5.445525,2.510057 0.509323,-0.113268 0.999281,-0.20878 1.088797,-0.212251 z M 49.756499,55.77222 c -0.254947,-0.254947 -0.215596,-20.262003 0.04065,-20.665657 0.165973,-0.261456 2.47428,-0.318828 10.645426,-0.264583 l 10.433503,0.06926 v 10.451042 10.451042 l -10.470098,0.06914 c -5.75855,0.03803 -10.550816,-0.01159 -10.649479,-0.110244 z m 13.689603,-4.749704 c 0.230185,-0.08833 0.418515,-0.38059 0.418515,-0.64947 0,-0.56832 -0.753578,-0.746602 -3.571875,-0.845035 l -1.852083,-0.06469 v -1.190625 -1.190625 l 1.719791,-0.06768 c 2.397332,-0.09434 2.910417,-0.24566 2.910417,-0.858366 0,-0.612707 -0.513085,-0.76403 -2.910417,-0.858367 L 58.440659,45.22999 V 44.039365 42.84874 l 2.435376,-0.132292 c 2.679483,-0.145552 3.519728,-0.534993 2.607283,-1.208437 -0.662194,-0.488741 -5.702977,-0.538953 -6.180368,-0.06156 -0.221443,0.221443 -0.3175,1.646296 -0.3175,4.709584 0,3.063287 0.09606,4.48814 0.3175,4.709583 0.332994,0.332994 5.35032,0.46114 6.143152,0.156901 z"
             id="path3733"
             inkscape:connector-curvature="0" />
          <path
             style="fill:#626262;stroke-width:0.26458335"
             d="m 28.041882,97.066684 c -0.237564,-0.619082 -0.187171,-3.62785 0.06749,-4.029408 0.14561,-0.229606 0.658588,-0.319059 1.517303,-0.264584 1.515185,0.09612 1.62817,0.552419 0.184163,0.743757 -1.429198,0.189376 -1.545172,0.993397 -0.159755,1.107546 1.217768,0.100336 1.234195,0.56097 0.02655,0.744538 -0.642434,0.09765 -0.891895,0.283972 -0.952757,0.711594 -0.07225,0.507609 0.05619,0.589471 1.03777,0.661458 0.61612,0.04519 1.16916,0.230984 1.228977,0.412885 0.176125,0.535589 -2.743876,0.448689 -2.94974,-0.08779 z m 6.52013,0.145688 c -0.94516,-0.37991 -0.69392,-0.700889 0.529167,-0.67605 1.468567,0.02982 1.498034,-0.541962 0.06615,-1.283528 -1.303012,-0.674823 -1.519685,-1.508538 -0.556131,-2.139882 0.455235,-0.29828 0.922269,-0.380897 1.47142,-0.260284 1.099434,0.241478 1.012103,0.614334 -0.167233,0.713994 -1.20972,0.10223 -1.429673,0.632153 -0.43811,1.055524 1.719032,0.733981 2.149946,1.706232 1.08639,2.451177 -0.656257,0.459658 -1.114431,0.491646 -1.991649,0.139049 z m 11.157916,-0.08266 c -0.07503,-0.195522 -0.101057,-1.237319 -0.05784,-2.315105 l 0.07857,-1.959615 1.416032,-0.08091 c 1.072769,-0.0613 1.388446,0.0028 1.302234,0.264584 -0.06259,0.190018 -0.580739,0.405021 -1.151448,0.477781 -1.337495,0.170519 -1.425086,0.869408 -0.132641,1.058334 1.28216,0.187423 1.350089,0.740248 0.103576,0.842946 -0.8045,0.06628 -1.008586,0.190172 -1.008586,0.612262 0,0.416727 0.220485,0.557276 1.037651,0.661459 0.570709,0.07276 1.086646,0.281119 1.146527,0.46302 0.15803,0.480037 -2.549777,0.455515 -2.734075,-0.02477 z m 6.085417,0 c -0.07503,-0.195522 -0.101057,-1.237319 -0.05784,-2.315105 l 0.07857,-1.959615 1.058334,-0.07789 c 1.657736,-0.12201 2.079373,0.353994 2.160553,2.439127 0.06493,1.667627 0.03328,1.773865 -0.60021,2.014715 -0.977085,0.371489 -2.48013,0.313841 -2.639407,-0.101229 z m 2.585284,-0.803056 c 0.294804,-0.44858 -0.316805,-0.958122 -1.150046,-0.958122 -0.928839,0 -1.316493,0.71461 -0.651449,1.200899 0.483515,0.353557 1.499579,0.216627 1.801495,-0.242777 z m -0.183304,-2.311347 c 0,-0.462036 -1.41492,-0.646589 -1.818169,-0.237149 -0.22221,0.225621 -0.173556,0.395338 0.190363,0.66406 0.568978,0.420139 1.627806,0.142449 1.627806,-0.426911 z m 12.815896,2.088764 c -0.604769,-0.768347 -1.198838,-1.434407 -1.320152,-1.48013 -0.121314,-0.04572 -0.257172,0.480754 -0.301908,1.169946 -0.04569,0.703963 -0.226264,1.300784 -0.412065,1.361948 -0.246152,0.08103 -0.330729,-0.434065 -0.330729,-2.014223 0,-2.882292 0.178377,-2.952425 1.938481,-0.762169 0.556842,0.692927 1.122389,1.191916 1.256771,1.108863 0.134384,-0.08305 0.244332,-0.67976 0.244332,-1.326015 0,-0.646255 0.119062,-1.175009 0.264583,-1.175009 0.340778,0 0.352602,4.147703 0.01243,4.357947 -0.138686,0.08571 -0.746969,-0.472808 -1.351737,-1.241158 z m 9.106686,1.128784 c -1.436134,-0.604912 -1.850641,-2.513441 -0.7787,-3.585382 0.810408,-0.810408 1.690423,-1.0321 2.649495,-0.667462 0.961406,0.365527 0.664974,0.67691 -0.545156,0.572651 -1.1402,-0.09824 -1.949262,0.545642 -1.949262,1.551286 0,1.507456 2.147361,2.169161 2.795612,0.861465 0.315626,-0.636706 0.643972,-0.530362 0.643972,0.208569 0,0.908841 -1.675969,1.539049 -2.815961,1.058873 z m 30.162503,0 c -1.43614,-0.604912 -1.85064,-2.513441 -0.7787,-3.585382 0.81041,-0.810408 1.69042,-1.0321 2.64949,-0.667462 0.96141,0.365527 0.66498,0.67691 -0.54515,0.572651 -1.1402,-0.09824 -1.94927,0.545642 -1.94927,1.551286 0,1.507456 2.14737,2.169161 2.79562,0.861465 0.31562,-0.636706 0.64397,-0.530362 0.64397,0.208569 0,0.908841 -1.67597,1.539049 -2.81596,1.058873 z m -65.446543,-1.83564 c 0,-1.732126 -0.03365,-1.831848 -0.67228,-1.992132 -1.099032,-0.275839 -0.462061,-0.682385 1.069155,-0.682385 1.531215,0 2.168186,0.406546 1.069154,0.682385 -0.638627,0.160284 -0.672279,0.260006 -0.672279,1.992132 0,1.444411 -0.08249,1.8234 -0.396875,1.8234 -0.314386,0 -0.396875,-0.378989 -0.396875,-1.8234 z M 57.7792,96.860338 c 0,-0.460065 1.504138,-3.790304 1.792394,-3.968456 0.415165,-0.256588 0.787659,0.238689 1.631997,2.169919 0.879251,2.01109 0.898184,2.561037 0.06213,1.804416 -0.6296,-0.56978 -2.647831,-0.599736 -2.86167,-0.04248 -0.190172,0.495578 -0.624848,0.521036 -0.624848,0.0366 z m 2.641783,-1.71855 c -0.0021,-0.239091 -0.123555,-0.613307 -0.269613,-0.831589 -0.229854,-0.343516 -0.318241,-0.327824 -0.657405,0.116716 -0.478803,0.627563 -0.502531,1.123495 -0.06112,1.277469 0.520491,0.181557 0.992566,-0.08722 0.988138,-0.562596 z m 21.170718,1.71855 c 0,-0.460065 1.504138,-3.790304 1.792393,-3.968456 0.415166,-0.256588 0.78766,0.238689 1.631998,2.169919 0.87925,2.01109 0.898184,2.561037 0.06213,1.804416 -0.6296,-0.56978 -2.647831,-0.599736 -2.86167,-0.04248 -0.190172,0.495578 -0.624848,0.521036 -0.624848,0.0366 z m 2.641783,-1.71855 c -0.0021,-0.239091 -0.123556,-0.613307 -0.269613,-0.831589 -0.229855,-0.343516 -0.318241,-0.327824 -0.657405,0.116716 -0.478804,0.627563 -0.502531,1.123495 -0.06112,1.277469 0.520491,0.181557 0.992566,-0.08722 0.988137,-0.562596 z m 4.29283,-0.103984 0.07685,-2.182813 0.891271,-0.08525 c 2.026192,-0.193804 3.205485,1.096857 2.285344,2.501168 -0.358535,0.547195 -0.39356,0.824028 -0.16713,1.320987 0.366303,0.80395 -0.208137,0.885746 -0.699124,0.09955 -0.18283,-0.292757 -0.617014,-0.529167 -0.971857,-0.529167 -0.409014,0 -0.702233,0.191714 -0.809337,0.529167 -0.387387,1.220549 -0.679169,0.424357 -0.606012,-1.653646 z m 2.54739,0.09832 c 0.194633,-0.12337 0.313695,-0.5085 0.264583,-0.855845 -0.07273,-0.514398 -0.267084,-0.646396 -1.047816,-0.711647 -1.037079,-0.08667 -1.442239,0.375631 -1.146315,1.30801 0.165743,0.52221 1.278892,0.671904 1.929548,0.259482 z m 4.067193,-0.09539 c 0.06614,-1.876168 0.14504,-2.192922 0.566288,-2.273448 0.971632,-0.185735 2.292948,0.245126 2.711715,0.884248 0.381883,0.582827 0.38201,0.713724 0.0013,1.47661 -0.234331,0.469726 -0.348459,1.11256 -0.260057,1.464784 0.193429,0.770689 -0.29659,0.840298 -0.693576,0.09853 -0.169913,-0.317485 -0.55399,-0.529167 -0.96012,-0.529167 -0.454406,0 -0.722408,0.173948 -0.8153,0.529167 -0.327176,1.251119 -0.621557,0.368207 -0.550384,-1.65072 z m 2.579849,-0.05638 c 0.176835,-0.213074 0.240176,-0.632031 0.142217,-0.940673 -0.14419,-0.4543 -0.354301,-0.541663 -1.144138,-0.475718 -0.984721,0.08221 -1.328756,0.569187 -1.002596,1.419148 0.190235,0.495747 1.592397,0.493818 2.004517,-0.0028 z m 3.825074,1.877663 c -0.26539,-0.691604 0.0129,-3.697449 0.35265,-3.809637 0.24631,-0.08132 0.33073,0.4367 0.33073,2.029521 0,1.292807 -0.10793,2.138714 -0.27288,2.138714 -0.15009,0 -0.33482,-0.161369 -0.4105,-0.358598 z m 9.9559,0.160161 c 0.0302,-0.495501 2.00109,-4.167188 2.23686,-4.167188 0.23576,0 2.20665,3.671687 2.23686,4.167188 0.0225,0.369879 -0.72405,0.201012 -0.87734,-0.198438 -0.1035,-0.26974 -0.52598,-0.396875 -1.31882,-0.396875 -0.71414,0 -1.29427,0.153914 -1.49591,0.396875 -0.34735,0.418534 -0.80211,0.533982 -0.78165,0.198438 z m 2.89832,-1.699348 c 0,-0.139517 -0.12737,-0.491654 -0.28304,-0.782526 -0.22602,-0.422323 -0.35926,-0.46559 -0.66146,-0.214791 -0.46645,0.387119 -0.49535,1.222716 -0.0477,1.37887 0.4355,0.151914 0.99219,-0.06216 0.99219,-0.381553 z"
             id="path3731"
             inkscape:connector-curvature="0" />
        </g>
      </g>
    </a>
  </g>
</svg>
